<?xml version="1.0" encoding="UTF-8"?>
<svg id="Layer_1" data-name="Layer 1" xmlns="http://www.w3.org/2000/svg" viewBox="0 0 1000 1000">
  <defs>
    <style>
      .cls-1 {
        stroke-width: .75px;
      }

      .cls-1, .cls-2 {
        fill: none;
        stroke: #000;
        stroke-linecap: round;
        stroke-miterlimit: 10;
      }
    </style>
  </defs>
  <g>
    <path d="M299.5,289.52l-30.19-33.9,11.27-10.03c2.67-2.38,5.42-4.03,8.23-4.93,2.82-.91,5.57-1.19,8.27-.86,2.7.34,5.3,1.24,7.79,2.69,2.5,1.46,4.78,3.35,6.85,5.67,2.29,2.58,4,5.24,5.11,7.99,1.11,2.75,1.62,5.49,1.54,8.22-.08,2.73-.76,5.38-2.02,7.97-1.27,2.58-3.13,4.97-5.58,7.15l-11.27,10.03ZM309.29,250.33c-1.9-2.13-3.95-3.83-6.16-5.09-2.21-1.26-4.47-2.02-6.8-2.3-2.32-.27-4.66-.02-7,.75-2.34.77-4.61,2.13-6.8,4.09l-8.83,7.87,26.28,29.51,8.83-7.87c2.23-1.98,3.86-4.11,4.9-6.37,1.04-2.26,1.53-4.58,1.49-6.93-.04-2.36-.57-4.7-1.59-7.02-1.01-2.32-2.45-4.54-4.33-6.64Z"/>
    <path d="M353.37,248.14c-2.69,1.64-5.5,2.58-8.4,2.8-2.91.23-5.72-.08-8.43-.93-2.71-.84-5.22-2.18-7.54-4.01-2.32-1.83-4.23-3.99-5.74-6.46-1.58-2.58-2.62-5.34-3.13-8.27-.51-2.93-.52-5.8,0-8.61.51-2.81,1.55-5.42,3.11-7.85,1.56-2.43,3.64-4.43,6.22-6,2.69-1.64,5.51-2.57,8.44-2.79,2.94-.22,5.76.12,8.48,1.01s5.23,2.24,7.53,4.06c2.3,1.81,4.19,3.92,5.65,6.33,1.6,2.62,2.65,5.4,3.17,8.33.51,2.93.51,5.79-.01,8.58-.52,2.79-1.56,5.4-3.13,7.82-1.57,2.43-3.64,4.43-6.22,6ZM326.05,237.84c1.35,2.22,3.03,4.13,5.03,5.73,2,1.6,4.16,2.78,6.49,3.53,2.33.75,4.73,1.02,7.2.81,2.47-.21,4.83-1,7.09-2.38,2.33-1.42,4.13-3.19,5.41-5.32,1.27-2.13,2.08-4.4,2.42-6.83.34-2.43.25-4.88-.26-7.37-.52-2.48-1.42-4.78-2.7-6.89-1.35-2.22-3.04-4.13-5.06-5.72-2.02-1.59-4.19-2.76-6.52-3.51-2.33-.75-4.71-1.03-7.14-.85-2.43.19-4.76.96-6.98,2.31-2.33,1.42-4.14,3.2-5.43,5.34-1.29,2.14-2.12,4.43-2.48,6.87-.36,2.44-.28,4.9.23,7.38.51,2.48,1.42,4.78,2.7,6.89Z"/>
    <path d="M412.11,212.63c-2.32,6.19-6.19,10.33-11.6,12.41-2.86,1.1-5.76,1.51-8.68,1.22-2.92-.29-5.65-1.11-8.18-2.47-2.53-1.35-4.79-3.13-6.78-5.34-1.99-2.2-3.5-4.64-4.52-7.3-1.07-2.78-1.62-5.66-1.64-8.62-.02-2.96.45-5.77,1.41-8.42.96-2.66,2.41-5.03,4.35-7.12,1.93-2.09,4.31-3.68,7.14-4.77,2.11-.81,4.1-1.31,5.96-1.51,1.87-.19,3.62-.14,5.27.16,1.65.3,3.17.83,4.59,1.59,1.41.76,2.71,1.68,3.91,2.78l-1.93,2.46c-2.5-2.23-5.18-3.52-8.03-3.86-2.85-.34-5.77.06-8.75,1.21-2.5.97-4.57,2.38-6.18,4.23-1.62,1.85-2.8,3.93-3.56,6.24s-1.09,4.71-.98,7.23c.1,2.52.6,4.95,1.51,7.3.96,2.51,2.32,4.72,4.06,6.62,1.74,1.91,3.71,3.43,5.9,4.55,2.19,1.12,4.51,1.79,6.97,2.01,2.46.22,4.88-.13,7.27-1.05,2.58-1,4.81-2.54,6.68-4.63s3.38-4.84,4.53-8.25l-3.15-8.17-9.61,3.7-.94-2.45,12.23-4.71,7.93,20.58-2.62,1.01-2.55-6.62Z"/>
    <path d="M452.41,209.93l-5.14-45.1,14.99-1.71c3.56-.4,6.75-.17,9.57.71,2.82.88,5.24,2.23,7.25,4.06s3.62,4.06,4.82,6.69,1.98,5.49,2.33,8.58c.39,3.43.25,6.59-.43,9.48-.68,2.89-1.84,5.42-3.48,7.6-1.64,2.18-3.72,3.96-6.24,5.34-2.52,1.38-5.42,2.26-8.68,2.63l-14.99,1.71ZM483,183.53c-.32-2.84-1.02-5.41-2.1-7.71-1.08-2.3-2.49-4.23-4.23-5.79-1.74-1.56-3.79-2.7-6.15-3.42-2.36-.72-5-.91-7.92-.58l-11.75,1.34,4.47,39.26,11.75-1.34c2.96-.34,5.52-1.13,7.68-2.39,2.15-1.25,3.89-2.86,5.21-4.81s2.24-4.17,2.75-6.65c.51-2.48.61-5.12.29-7.92Z"/>
    <path d="M517.49,161.22l2.81.15,16.68,46.37-3.45-.19-5.51-15.28-21.64-1.18-7.13,14.59-3.51-.19,21.75-44.28ZM527.28,189.55l-8.6-24.29-11.38,23.2,19.98,1.09Z"/>
    <path d="M551.28,164.3l10.5,27.79,20.63-21.43,3.57.73-23.2,24.1-3.43,16.79-3.19-.65,3.46-16.91-11.84-31.14,3.51.72Z"/>
    <path d="M590.34,195.88c.95-2.56,2.35-4.94,4.19-7.14,1.84-2.2,3.99-3.98,6.46-5.34,2.46-1.36,5.17-2.2,8.14-2.53,2.96-.33,6.04.1,9.24,1.29,3.8,1.41,6.71,3.48,8.74,6.22,2.03,2.73,3.2,5.7,3.51,8.91l-3.05.5c-.21-1.76-.64-3.33-1.29-4.71s-1.45-2.59-2.39-3.65c-.95-1.06-2.01-1.96-3.18-2.72-1.17-.76-2.38-1.36-3.62-1.82-2.72-1.01-5.32-1.35-7.8-1.03-2.49.33-4.78,1.1-6.87,2.32-2.09,1.22-3.92,2.81-5.48,4.75-1.56,1.94-2.76,4.03-3.59,6.27-.94,2.52-1.39,5.08-1.35,7.68.03,2.6.48,5.06,1.36,7.36.87,2.3,2.15,4.36,3.84,6.17s3.74,3.16,6.13,4.05c1.28.47,2.66.81,4.13.99,1.48.19,2.96.17,4.45-.05,1.49-.22,2.97-.66,4.45-1.31,1.47-.66,2.83-1.57,4.09-2.74l2.17,2.24c-1.31,1.33-2.82,2.39-4.52,3.16-1.7.78-3.46,1.3-5.29,1.58-1.83.27-3.67.31-5.53.09-1.86-.21-3.6-.62-5.24-1.23-2.92-1.08-5.35-2.71-7.29-4.89-1.94-2.18-3.41-4.62-4.4-7.33-.99-2.71-1.49-5.56-1.5-8.54,0-2.98.5-5.83,1.51-8.55Z"/>
    <path d="M664.84,204.36l2.44,1.41-6.08,48.91-2.99-1.73,2-16.12-18.77-10.83-12.96,9.79-3.04-1.76,39.41-29.67ZM660.77,234.05l3.31-25.55-20.64,15.55,17.33,10Z"/>
    <path d="M670.41,261.66l28.89-35.02,14.55,12c1.48,1.22,2.58,2.66,3.32,4.31.73,1.66,1.13,3.37,1.18,5.16.05,1.78-.21,3.53-.77,5.25-.56,1.72-1.39,3.24-2.47,4.55-1.06,1.28-2.28,2.36-3.66,3.23-1.39.88-2.83,1.49-4.34,1.85-1.51.36-3.03.43-4.57.21-1.54-.22-2.99-.73-4.37-1.53l-2.5,20.81-2.91-2.4,2.42-20.22-11.34-9.36-10.91,13.22-2.52-2.08ZM685.75,248.2l12.28,10.13c1.12.92,2.34,1.52,3.67,1.78,1.33.27,2.65.27,3.97,0,1.32-.26,2.58-.77,3.78-1.52,1.2-.75,2.25-1.67,3.14-2.75.92-1.12,1.61-2.36,2.05-3.74.44-1.38.64-2.75.58-4.12-.05-1.37-.36-2.68-.9-3.93-.54-1.25-1.36-2.32-2.44-3.22l-11.93-9.85-14.2,17.21Z"/>
    <path d="M727.27,312.83l-2.21,1.94-19.99-22.69,34.06-30.01,19.61,22.26-2.21,1.94-17.46-19.81-13.38,11.79,15.26,17.32-2.11,1.86-15.26-17.32-14.15,12.47,17.83,20.25Z"/>
  </g>
  <circle cx="175.62" cy="500" r="9.08"/>
  <circle class="cls-1" cx="500" cy="500" r="244.96"/>
  <circle class="cls-1" cx="500" cy="500" r="406.36"/>
  <circle cx="827.81" cy="500" r="9.08"/>
  <g>
    <g>
      <path class="cls-2" d="M593.74,367.07s18.47,7.38,20.97,34.45c.39,4.25-1.27,10.46-5.84,11.74-6.03,1.68-11.32-2.71-15.01-6.83-3.53-3.94-7.28-8.23-9.89-12.86-.16-.28-.48-.67-.48-1.01,0-.94-12.03,4.37-19.21-5.47-1.5-2.06-2.59-4.39-3.18-6.87-.54-2.27-.65-4.63-.43-6.96.44-4.71,1.82-8.45,5.12-11.81,3.04-3.1,6.88-5.33,11-6.67,4.85-1.59,9.98-1.75,15.04-1.75,5.08,0,10.25-.29,15.25.75,6.67,1.39,12.28,5.3,16.74,10.32,3.76,4.24,7.78,9.4,13.09,11.76.89.4,1.84.7,2.82.76,3.48.22,6.96.02,10.44.03,2.13,0,4.26,0,6.17,1.05,4.09,2.26,3.57,7.43,2.44,11.26-1.25,4.22-7.5,21.55-24.21,24.99-8.1,1.67-17.26,3.35-22.25,10.66-4.04,5.92-5.27,13.46-5.63,20.49-.26,5.1-.05,10.26.78,15.29.68,4.13,1.81,8.19,3.46,12.03,1.41,3.3,3.65,6.2,4.81,9.62.98,2.88,1.22,6.02,1.08,9.05-.33,6.81-2.69,13.51-6.08,19.38-1.1,1.9-2.32,3.73-3.66,5.46-8.59,11.09-17.18,20.93-4.69,50.76,2.35,5.62,2.48,12.62,2.71,18.58.11,2.93.13,5.87.08,8.8-.06,3.55,0,6.77,1.16,10.16.7,2.04,1.6,4.02,2.69,5.89,2.81,4.81,6.96,8.75,12.06,11.05,1.28.58,2.6,1.05,3.95,1.43,5.94,2.03,15.31,2.97,15.31,14.06-.31,1.41,1.07,11.12-15.64,10.26-16.31-.84-16.7-.86-16.71-.86-1.88-.1-3.63-.59-5.19-1.67-4.12-2.86-4.05-7.86-5.75-12.11-1.96-4.92-5.12-8.68-8.99-12.19-3.59-3.26-7.83-7.26-10.15-11.59-1.76-3.29-1.85-8-1.95-11.64-.22-8.54-.34-17.08-.6-25.61-.44-14.43-7.24-27.88-17.59-37.8-4.65-4.46-11.54-8.27-18.04-8.74-6.45-.47-13.83,2.23-18.68,6.45-4.21,3.66-5.5,9.38-5.64,14.73-.34,13.24,5.36,25.22,9.78,37.4-3.15-6.93-8.56-14.68-16.26-16.83-1.33-.37-2.72-.55-4.11-.52-5.76.14-10.59,3.5-13.51,8.38-3.73,6.23-4.63,13.67-4.53,20.8.29,20.44,10.76,37.35,30.12,45.61,6.81,2.91,14.41,3.74,21.73,2.8,6.03-.77,15.05-2.68,19.03-7.69,2.41-3.04,4.11-7.77-.5-9.69-1.14-.48-2.41-.52-3.65-.54-12.37-.18-24.35,2.44-36.17,5.85-8.14,2.35-16.33,4.52-24.52,6.67-5.92,1.55-11.77,3.08-17.85,3.86-11.08,1.43-24.3,1.5-33.62-5.59"/>
      <g>
        <path d="M326.92,491.81c.41-.84,2.15-7.14,3.99-14.69-3.89-.84-6.04-2.1-6.04-3.44,0-2.27,1.33-6.55,10.14-14.86l.62-3.02c2.36-12.18,6.86-36.61,7.17-37.87.21-1.26,3.07-1.09,2.56,1.93-.31,1.76-4.4,20.15-8.19,37.03,4.5-3.95,10.55-8.73,18.84-14.44,28.06-19.48,40.86-23.18,42.29-24.27,1.54-1.09,2.46-1.18,1.54.42-1.54,2.69-15.56,8.23-41.06,25.19-10.55,6.97-17.82,12.85-22.63,17.55l-3.28,14.44c5.33.76,13.82,1.09,24.06.5,17.31-1.01,25.7-3.02,28.26-4.03,2.56-1.01,2.97-.59,2.05.17-.92.84-9.32,4.2-28.67,5.79-10.85.84-20.07.34-26.11-.76l-1.54,6.55c-2.05,8.15-2.05,8.99-3.07,9.24-1.02.33-1.74-.17-.92-1.43ZM331.33,475.52l2.66-12.01c-5.32,5.46-6.96,8.98-6.96,10.08,0,.76,1.54,1.43,4.3,1.93Z"/>
        <path d="M445.5,460.84c.51-.31,2.66-.2.92.92-6.76,4.4-28.47,14.23-35.23,14.23-5.02,0-6.45-2.97-6.45-5.12s.41-3.17.2-3.38c-.31-.31-.92-.2-4.2,1.54-2.97,1.74-6.25,3.07-7.27,3.07-1.43,0-2.46-.92-2.46-1.54,0-1.95,1.23-4.61,5.12-7.48,3.28-2.56,5.33-3.07,7.07-3.07,2.36,0,3.79,3.69,2.76,3.69s-1.33-2.05-2.46-2.05c-1.02,0-3.07.82-5.94,2.76-2.66,1.74-4.71,4.71-4.71,5.53,0,.21.1.31.41.31.92,0,2.66-.72,5.53-2.15,3.89-1.84,6.45-3.28,7.68-3.28.41,0,1.33.21,1.33.92,0,.82-1.02,2.66-1.02,5.02,0,1.74,1.84,3.07,4.51,3.07,7.17,0,27.96-9.63,34.2-13.01Z"/>
        <path d="M439.56,488.49c.21-6.25,1.74-27.75,4.81-44.24.72-3.79,1.43-7.17,2.15-10.24-19.97,0-21.81.1-22.22-1.43-.21-.92,2.66-2.15,3.48-1.64,1.02.62,1.74.92,4.71.92l14.54.1c3.28-13.11,6.35-18.43,7.78-18.43.82,0,1.43,2.46,1.23,3.38-.31,1.23-.72-.51-1.84,1.95-.2.31-2.35,5.94-4.3,13.11,3.58,0,4.92.31,15.05.31,9.42,0,11.88-.51,12.19.61.21,1.23-4.81,1.13-12.49,1.13h-15.36c-.92,3.69-1.84,7.58-2.46,11.37-.92,5.02-2.46,13.93-3.79,24.68-.82,5.84-1.84,20.38-1.23,25.29.51,3.89,1.33,4.3-.1,4.51-1.33.31-2.25-3.79-2.15-11.37Z"/>
        <path d="M489.12,461.66c-1.23.31-6.14,3.07-17.92,7.07-9.32,3.17-11.67,3.69-13.31,3.69-2.66,0-3.48-1.84-3.48-3.48,0-1.54.41-4.2,1.02-5.94.41-1.43.92-2.25,2.66-2.56.51-.1,1.13.51.51,1.64-1.54,3.17-1.84,5.12-2.05,6.76-.1,1.23.41,1.84.92,1.84,1.33,0,4.2-.31,12.9-3.38,10.04-3.58,17.72-6.86,18.33-6.86.51,0,.92,1.02.41,1.23ZM459.43,450.5c.21-.62,1.03-1.74,1.64-1.64.92.21,1.54,1.43,1.33,2.36-.31.92-1.64,2.05-2.25,1.95-.51-.21-.92-1.95-.72-2.66Z"/>
        <path d="M483.49,465.76c2.05-4.71,6.14-6.55,8.29-6.14,1.95.31,2.56,1.95,1.74,4.3-1.23,3.17-5.02,5.43-8.7,6.66.41,1.43,1.74,2.15,3.58,2.05,4.71-.41,11.26-3.69,29.8-11.78,1.33-.61,1.64.72.82,1.02-15.56,6.86-24.37,12.29-30,12.7-5.33.41-7.68-4.1-5.53-8.81ZM484.62,469.34c2.97-1.02,6.55-3.89,7.37-6.14.31-.92.21-1.84-.51-2.05-1.13-.31-4.4,1.02-6.14,5.33-.51,1.13-.72,2.05-.72,2.87Z"/>
        <path d="M519.12,449.47c.21-.41,1.23-1.13,1.74-4.3.31-2.56-.61-2.97-.61-3.48.21-.51,1.33-1.54,2.05-.31.62,1.33.72,3.07.31,5.02-.62,1.95-1.54,4.51-3.18,4.2-.51,0-.61-.72-.31-1.13Z"/>
        <path d="M532.64,455.21c.51,2.05,2.25,5.84,3.79,10.45,4.1-3.28,7.88-5.73,11.78-7.48.31-.21,1.54-.41,1.95-.31.82.31-.21.72-.82,1.02-3.38,1.33-7.68,4.61-12.29,8.7,1.23,4.1,2.25,8.6,2.25,13.31,0,10.85-9.11,17.41-15.05,17.41-8.4,0-8.81-12.19,4.92-25.91,1.95-1.95,3.79-3.69,5.53-5.22-1.33-3.99-2.97-7.78-3.69-10.75-1.54-5.63,2.15-10.04,5.22-10.34,2.36-.31,2.25,1.02,1.23,1.54-3.79,2.25-5.43,5.02-4.81,7.58ZM535.41,469.13l-4.4,4.3c-12.39,12.49-12.19,23.14-7.78,23.14,6.55,0,14.23-7.58,14.23-17,0-3.38-.92-6.96-2.05-10.45Z"/>
      </g>
    </g>
    <g>
      <path d="M461.05,508.75v-20.77h1.49v12.61l12.11-12.61h1.73l-8.63,9.1,9.07,11.67h-1.7l-8.34-10.77-4.24,4.36v6.41h-1.49Z"/>
      <path d="M477.99,494.61c0-.99.18-1.92.56-2.78s.89-1.61,1.55-2.25,1.43-1.15,2.31-1.52c.88-.37,1.83-.56,2.87-.56s2.06.2,2.95.58c.9.39,1.68.95,2.34,1.67.66.72,1.18,1.61,1.55,2.66.37,1.05.56,2.23.56,3.54,0,2.18-.19,4.08-.56,5.68s-.89,2.93-1.55,3.98c-.66,1.05-1.46,1.83-2.38,2.34-.93.51-1.95.76-3.06.76-1.4,0-2.65-.36-3.73-1.08s-1.89-1.71-2.41-2.96l1.02-.79c.39,1.05,1.05,1.9,1.99,2.55.94.64,1.98.97,3.13.97.92,0,1.75-.22,2.5-.66.75-.44,1.39-1.08,1.92-1.93s.94-1.89,1.24-3.12c.3-1.23.45-2.63.45-4.21-.21.62-.53,1.2-.94,1.71-.41.52-.88.96-1.42,1.33-.54.37-1.12.66-1.77.86-.64.21-1.32.31-2.02.31-1,0-1.92-.19-2.78-.56-.86-.37-1.61-.88-2.25-1.52-.64-.64-1.15-1.39-1.52-2.25-.37-.86-.56-1.77-.56-2.75ZM485.25,488.82c-.8,0-1.56.15-2.27.45s-1.33.72-1.86,1.24c-.53.53-.95,1.14-1.26,1.84s-.47,1.45-.47,2.25.16,1.55.47,2.25.73,1.32,1.26,1.84c.53.53,1.15.95,1.86,1.26s1.47.47,2.27.47,1.56-.16,2.27-.47c.71-.31,1.33-.73,1.86-1.26.53-.53.95-1.14,1.26-1.84.31-.7.47-1.45.47-2.25s-.16-1.52-.47-2.22c-.31-.7-.73-1.32-1.26-1.84s-1.15-.95-1.86-1.26c-.71-.31-1.47-.47-2.27-.47Z"/>
      <path d="M501.07,509.05c-1.17,0-2.29-.2-3.36-.59-1.07-.39-2.01-.97-2.81-1.75l.73-1c.82.74,1.67,1.29,2.54,1.64.88.35,1.84.53,2.9.53,1.33,0,2.39-.28,3.21-.83.81-.56,1.21-1.33,1.21-2.33,0-.47-.1-.86-.31-1.19-.21-.32-.51-.59-.92-.82-.41-.22-.92-.42-1.52-.6-.61-.17-1.31-.36-2.11-.56-.86-.19-1.6-.39-2.24-.58-.63-.2-1.16-.43-1.57-.7-.41-.27-.72-.6-.92-1-.21-.39-.31-.89-.31-1.49,0-.76.15-1.42.44-1.99.29-.57.7-1.03,1.21-1.4s1.11-.65,1.78-.83c.67-.19,1.39-.28,2.15-.28,1.19,0,2.24.2,3.16.6.92.4,1.63.91,2.13,1.54l-.82.79c-.51-.58-1.17-1.02-1.97-1.32-.81-.29-1.67-.44-2.59-.44-.57,0-1.1.06-1.59.18-.5.12-.93.3-1.3.56-.37.25-.66.58-.88.98-.21.4-.32.87-.32,1.42,0,.45.07.81.22,1.08.15.27.38.51.7.7s.74.37,1.24.51,1.11.31,1.81.48c.96.23,1.8.46,2.55.67.74.21,1.36.48,1.86.79.5.31.88.68,1.14,1.11.26.43.39.98.39,1.64,0,1.37-.53,2.45-1.59,3.26-1.06.81-2.48,1.21-4.26,1.21Z"/>
    </g>
  </g>
  <g>
    <path d="M211.57,692.63l2.61-8.72c-2.92-.22-5.61-.95-8.07-2.2-2.46-1.24-4.47-3.08-6.05-5.52-1.03-1.6-1.76-3.31-2.18-5.12-.42-1.81-.5-3.61-.23-5.38.27-1.77.9-3.44,1.89-5.01.98-1.57,2.38-2.93,4.17-4.09,1.47-.95,2.97-1.6,4.51-1.96,1.54-.35,3.08-.48,4.63-.37,1.55.11,3.12.37,4.73.8,1.61.43,3.22.94,4.83,1.55.57-1.81,1.12-3.39,1.66-4.75.54-1.36,1.08-2.52,1.61-3.48.53-.96,1.11-1.79,1.74-2.48.63-.69,1.31-1.27,2.04-1.75,1.26-.82,2.62-1.35,4.06-1.58,1.44-.24,2.86-.22,4.26.07,1.4.28,2.72.84,3.96,1.69s2.3,1.94,3.17,3.28c.8,1.23,1.33,2.52,1.58,3.85.25,1.33.26,2.62.04,3.88-.23,1.26-.71,2.43-1.45,3.53-.74,1.1-1.7,2.03-2.88,2.79-1.23.79-2.53,1.3-3.92,1.53-1.39.23-2.83.25-4.31.05-1.49-.2-3.02-.55-4.59-1.05-1.57-.5-3.18-1.04-4.83-1.62l-6.05,20.46c2.11-.23,4.26-.74,6.44-1.54,2.18-.79,4.29-1.85,6.33-3.17l1.55,2.4c-4.95,3.1-10.02,4.84-15.22,5.22l-3.66,12.34-2.36-3.65ZM202.78,674.89c1.34,2.07,3.07,3.6,5.19,4.6,2.12,1,4.46,1.54,7.02,1.64l6.54-21.71c-1.5-.52-2.94-.97-4.34-1.33-1.39-.36-2.77-.59-4.14-.68-1.36-.09-2.69,0-3.98.3s-2.54.84-3.77,1.63c-1.47.95-2.57,2.08-3.29,3.37-.73,1.29-1.17,2.65-1.32,4.07s-.04,2.83.36,4.25c.4,1.42.97,2.71,1.72,3.87ZM231.19,646.68c-.53.34-1.02.75-1.47,1.22-.45.47-.9,1.12-1.34,1.95-.45.83-.91,1.88-1.4,3.15-.48,1.27-1.02,2.84-1.6,4.71,3.31,1.26,6.18,2.13,8.61,2.62,2.43.49,4.58.12,6.46-1.09,1.71-1.11,2.76-2.61,3.13-4.5.37-1.89-.03-3.74-1.21-5.56-.63-.98-1.41-1.77-2.31-2.37-.91-.6-1.87-1.01-2.88-1.23-1.01-.22-2.04-.24-3.08-.06-1.04.18-2.01.57-2.91,1.15Z"/>
    <path d="M303.41,717.29l-36.14,37.12-2.37-2.31,17.31-17.77-20.83-20.28-17.31,17.77-2.37-2.31,36.14-37.12,2.37,2.31-16.49,16.94,20.83,20.28,16.49-16.94,2.37,2.31Z"/>
    <path d="M300.12,780.32c-2.62-1.85-4.57-4.15-5.85-6.9-1.29-2.75-2.01-5.67-2.16-8.76-.15-3.09.26-6.22,1.23-9.4.98-3.18,2.42-6.12,4.32-8.83,1.99-2.82,4.35-5.21,7.08-7.15,2.72-1.95,5.57-3.36,8.55-4.24,2.98-.88,5.96-1.14,8.94-.79,2.98.35,5.73,1.41,8.24,3.18,2.61,1.85,4.57,4.16,5.86,6.95,1.29,2.79,1.99,5.74,2.1,8.85.11,3.11-.32,6.25-1.28,9.41-.96,3.16-2.37,6.05-4.22,8.68-2.02,2.86-4.39,5.27-7.12,7.21-2.72,1.95-5.57,3.35-8.53,4.21-2.96.86-5.93,1.11-8.92.76-2.98-.35-5.73-1.41-8.24-3.18ZM300.37,748.34c-1.71,2.42-3,5.01-3.86,7.77-.86,2.76-1.24,5.47-1.13,8.13.1,2.66.71,5.16,1.82,7.49,1.11,2.33,2.76,4.27,4.95,5.82,2.26,1.6,4.68,2.5,7.26,2.71,2.58.21,5.14-.11,7.67-.97,2.54-.86,4.95-2.15,7.22-3.88,2.28-1.73,4.23-3.74,5.86-6.05,1.71-2.42,2.99-5.02,3.83-7.79.84-2.77,1.21-5.49,1.11-8.15-.11-2.66-.7-5.15-1.77-7.46-1.07-2.3-2.69-4.22-4.84-5.74-2.26-1.6-4.69-2.51-7.29-2.73-2.59-.23-5.17.08-7.73.93-2.56.84-4.97,2.13-7.25,3.86-2.28,1.73-4.23,3.74-5.86,6.05Z"/>
    <path d="M373.38,821.09l19.38-40.39-31.5,23.65-1.87-.9-1.26-39.37-19.38,40.39-2.98-1.43,22.41-46.71,2.98,1.43,1.29,41.73,33.35-25.11,2.98,1.43-22.41,46.71-2.98-1.43Z"/>
    <path d="M429.06,835.87l-.95,3.22-29.44-8.7,14.69-49.68,28.88,8.54-.95,3.22-25.7-7.6-5.77,19.52,22.47,6.64-.91,3.08-22.47-6.64-6.1,20.64,26.26,7.76Z"/>
    <path d="M507.7,836.17c-.14,1.89-.59,3.63-1.35,5.21s-1.75,2.93-2.96,4.07c-1.21,1.13-2.59,1.98-4.15,2.55-1.56.57-3.18.8-4.86.68l-21.49-1.54,3.71-51.67,21.43,1.54c1.6.11,3.01.61,4.25,1.47,1.24.87,2.27,1.96,3.08,3.26.82,1.3,1.42,2.76,1.8,4.37.38,1.61.52,3.22.4,4.82-.19,2.62-.94,4.98-2.26,7.08-1.32,2.1-3.06,3.58-5.2,4.45,2.57,1.06,4.53,2.85,5.89,5.36,1.36,2.51,1.93,5.3,1.71,8.35ZM504.43,835.42c.1-1.36-.02-2.7-.36-4.01-.34-1.32-.86-2.5-1.57-3.55-.71-1.05-1.57-1.9-2.58-2.56-1.02-.66-2.13-1.03-3.34-1.12l-18.64-1.34-1.52,21.18,18.19,1.3c1.29.09,2.51-.11,3.66-.62,1.14-.5,2.15-1.22,3.02-2.16.87-.94,1.59-2.02,2.15-3.25.57-1.23.9-2.52.99-3.88ZM479.65,799.04l-1.48,20.67,16.83,1.21c1.25.09,2.42-.12,3.49-.63,1.08-.51,2.03-1.21,2.85-2.1.82-.89,1.5-1.95,2.02-3.18.52-1.23.83-2.5.92-3.81.1-1.41,0-2.74-.33-4.01-.32-1.27-.8-2.4-1.45-3.4-.64-1-1.44-1.81-2.4-2.44-.95-.63-2.03-.99-3.24-1.07l-17.22-1.24Z"/>
    <path d="M545.93,847.92c-3.19.31-6.17-.16-8.94-1.4-2.77-1.25-5.22-2.99-7.35-5.22-2.13-2.24-3.86-4.88-5.2-7.92-1.34-3.05-2.17-6.21-2.49-9.51-.33-3.44-.1-6.78.69-10.04.79-3.25,2.03-6.18,3.71-8.79,1.68-2.61,3.77-4.75,6.26-6.43,2.49-1.68,5.26-2.67,8.32-2.97,3.19-.31,6.18.17,8.97,1.44,2.8,1.27,5.25,3.05,7.37,5.33,2.11,2.29,3.84,4.94,5.17,7.96,1.34,3.02,2.16,6.13,2.47,9.33.34,3.49.11,6.86-.68,10.11s-2.03,6.17-3.71,8.75c-1.68,2.58-3.77,4.72-6.26,6.4-2.49,1.68-5.26,2.67-8.32,2.97ZM525.24,823.53c.29,2.95,1,5.76,2.15,8.4,1.15,2.65,2.63,4.95,4.45,6.9,1.82,1.95,3.91,3.44,6.27,4.48,2.36,1.04,4.88,1.43,7.55,1.17,2.75-.27,5.18-1.16,7.27-2.69,2.09-1.52,3.82-3.44,5.18-5.74,1.36-2.31,2.34-4.86,2.94-7.65.6-2.79.76-5.6.49-8.4-.29-2.95-1.02-5.75-2.19-8.4-1.17-2.65-2.66-4.95-4.48-6.9-1.82-1.95-3.89-3.45-6.21-4.49-2.32-1.05-4.79-1.44-7.42-1.19-2.76.27-5.19,1.16-7.3,2.69s-3.86,3.44-5.24,5.75c-1.38,2.31-2.38,4.86-2.97,7.66-.6,2.8-.76,5.6-.49,8.4Z"/>
    <path d="M586.38,787.69l2.75-.77,32.67,44.67-3.38.94-10.78-14.72-21.19,5.91-1.6,18.17-3.44.96,4.96-55.17ZM605.96,815.1l-16.98-23.44-2.58,28.9,19.57-5.46Z"/>
    <path d="M639.7,824.27l-22.72-46.56,17.21-8.4c1.75-.85,3.57-1.22,5.45-1.12,1.88.11,3.69.59,5.44,1.45,1.74.86,3.33,2,4.78,3.43,1.45,1.43,2.6,3.02,3.45,4.77.83,1.71,1.4,3.47,1.72,5.29.31,1.82.35,3.58.11,5.26-.24,1.69-.76,3.24-1.56,4.66-.8,1.42-1.86,2.61-3.17,3.57l19.16,13.06-3.44,1.68-18.61-12.68-13.41,6.55,8.58,17.57-2.98,1.45ZM632.59,802.17l14.52-7.09c1.32-.64,2.37-1.56,3.14-2.75.77-1.19,1.28-2.5,1.54-3.96.25-1.45.25-2.96-.01-4.54s-.75-3.08-1.45-4.53c-.72-1.49-1.67-2.8-2.82-3.94-1.16-1.14-2.41-2.03-3.76-2.67-1.35-.64-2.73-1.01-4.15-1.1-1.42-.09-2.77.17-4.05.8l-14.12,6.89,11.17,22.88Z"/>
    <path d="M688.07,798.18l-31.53-41.1,12.15-9.32c2.88-2.21,5.83-3.61,8.84-4.21,3.01-.59,5.94-.51,8.81.23,2.86.75,5.61,2.09,8.24,4.02,2.63,1.94,5.03,4.31,7.19,7.13,2.4,3.13,4.16,6.26,5.3,9.41,1.13,3.15,1.63,6.2,1.5,9.15-.13,2.95-.9,5.75-2.29,8.38s-3.41,4.96-6.05,6.99l-12.15,9.32ZM699.14,756.96c-1.98-2.58-4.14-4.72-6.46-6.4-2.32-1.68-4.72-2.83-7.19-3.45-2.47-.62-4.95-.68-7.45-.17-2.5.51-4.94,1.67-7.3,3.49l-9.53,7.31,27.44,35.78,9.53-7.31c2.4-1.84,4.17-3.92,5.32-6.24,1.14-2.32,1.71-4.76,1.7-7.33,0-2.57-.53-5.19-1.57-7.86-1.04-2.67-2.53-5.28-4.49-7.82Z"/>
    <path d="M731.87,760.83l-37.47-35.77,2.29-2.39,37.47,35.77-2.29,2.39Z"/>
    <path d="M715.05,712.89l37.01,25.23-1.86,2.73-42.8-29.18,1.43-2.09,55.88-1.02-37.68-25.69,1.86-2.73,42.8,29.18-1.72,2.52-54.93,1.04Z"/>
    <path d="M788.28,651.81c3.65,6.2,4.41,12.04,2.28,17.52-1.13,2.9-2.87,5.32-5.24,7.26-2.37,1.94-5.05,3.34-8.06,4.22-3,.88-6.17,1.25-9.51,1.11-3.34-.14-6.53-.79-9.57-1.97-3.17-1.23-6.04-2.91-8.61-5.05-2.56-2.13-4.64-4.52-6.23-7.15-1.59-2.63-2.58-5.42-2.98-8.36-.4-2.94-.04-5.84,1.07-8.7.83-2.14,1.84-3.96,3.03-5.47,1.19-1.51,2.51-2.76,3.96-3.75,1.45-.99,3.02-1.73,4.7-2.22,1.68-.49,3.42-.77,5.23-.86l.71,3.2c-3.74.22-6.79,1.25-9.15,3.1-2.36,1.84-4.13,4.28-5.3,7.3-.99,2.54-1.27,5.08-.84,7.61s1.36,4.91,2.79,7.14c1.43,2.23,3.27,4.22,5.51,5.97,2.24,1.75,4.7,3.15,7.38,4.18,2.86,1.11,5.74,1.72,8.64,1.82,2.91.11,5.64-.24,8.19-1.03,2.55-.79,4.81-2.02,6.78-3.67,1.97-1.65,3.42-3.68,4.37-6.1,1.02-2.62,1.3-5.38.86-8.26s-1.72-5.99-3.82-9.31l-9.32-3.62-3.78,9.74-2.79-1.08,4.81-12.4,23.47,9.11-1.03,2.66-7.55-2.93Z"/>
  </g>
</svg>