<?xml version="1.0" encoding="UTF-8"?>
<svg id="Layer_1" xmlns="http://www.w3.org/2000/svg" version="1.1" viewBox="0 0 1000 1000">
  <!-- Generator: Adobe Illustrator 29.0.0, SVG Export Plug-In . SVG Version: 2.1.0 Build 186)  -->
  <defs>
    <style>
      .st0, .st1 {
        fill: none;
        stroke: #000;
        stroke-linecap: round;
        stroke-miterlimit: 10;
      }

      .st2 {
        isolation: isolate;
      }

      .st1 {
        stroke-width: 1.5px;
      }
    </style>
  </defs>
  <g class="st2">
    <g class="st2">
      <path d="M352.2,276.4l-17.1-26,8.5-5.6c2-1.3,4-2.1,6-2.5,2-.3,3.8-.2,5.6.3,1.8.5,3.4,1.4,5,2.6,1.5,1.2,2.9,2.8,4.1,4.5,1.3,2,2.2,4,2.7,5.9.5,2,.6,3.9.3,5.7-.3,1.8-1,3.5-2.1,5.2-1.1,1.6-2.6,3-4.4,4.2l-8.5,5.6ZM362.4,251c-1.1-1.6-2.3-3-3.7-4.1-1.4-1.1-2.8-1.8-4.3-2.3-1.5-.4-3.1-.5-4.8-.2-1.6.3-3.3,1-4.9,2l-6.6,4.4,14.9,22.6,6.6-4.4c1.7-1.1,3-2.4,3.9-3.8.9-1.4,1.4-2.9,1.6-4.5.2-1.6,0-3.2-.4-4.9-.5-1.7-1.2-3.3-2.3-4.9Z"/>
    </g>
  </g>
  <g class="st2">
    <g class="st2">
      <path d="M392,253.3c-1.9.9-3.9,1.3-5.8,1.3-2,0-3.8-.5-5.6-1.3-1.8-.8-3.4-1.9-4.8-3.3-1.4-1.4-2.6-3-3.5-4.8-.9-1.9-1.4-3.8-1.6-5.9-.2-2,0-4,.5-5.8.5-1.9,1.4-3.6,2.6-5.1,1.2-1.5,2.7-2.7,4.6-3.6,1.9-.9,3.9-1.3,5.8-1.3,2,0,3.9.5,5.6,1.3,1.8.8,3.4,1.9,4.8,3.3,1.4,1.4,2.6,3,3.4,4.7.9,1.9,1.4,3.9,1.6,5.9s0,4-.5,5.8c-.5,1.9-1.4,3.6-2.6,5.1-1.2,1.5-2.7,2.7-4.6,3.6ZM374.3,244.2c.8,1.6,1.8,3,3,4.3,1.2,1.2,2.6,2.2,4.1,2.9,1.5.7,3.1,1,4.8,1.1,1.7,0,3.3-.3,4.9-1.1,1.7-.8,3-1.9,4-3.2,1-1.3,1.7-2.8,2.1-4.5s.5-3.3.3-5c-.2-1.7-.7-3.4-1.4-4.9-.8-1.6-1.8-3-3-4.3-1.3-1.2-2.6-2.2-4.2-2.9-1.5-.7-3.1-1.1-4.7-1.1-1.6,0-3.3.3-4.8,1.1-1.7.8-3,1.9-4,3.2-1,1.4-1.7,2.9-2.1,4.5-.4,1.6-.5,3.3-.3,5,.2,1.7.7,3.4,1.4,4.9Z"/>
    </g>
  </g>
  <g class="st2">
    <g class="st2">
      <path d="M433.3,232.2c-1.8,4.1-4.5,6.8-8.2,8-2,.6-3.9.8-5.9.5-2-.3-3.8-1-5.4-2-1.7-1-3.1-2.3-4.4-3.9-1.3-1.6-2.2-3.3-2.8-5.2-.6-1.9-.9-3.9-.8-6,0-2,.5-3.9,1.2-5.7.7-1.8,1.8-3.3,3.2-4.7,1.4-1.3,3-2.3,5-3,1.4-.5,2.8-.7,4.1-.8,1.3,0,2.4,0,3.5.3,1.1.3,2.1.7,3,1.3.9.6,1.8,1.3,2.5,2.1l-1.4,1.6c-1.6-1.6-3.4-2.6-5.3-3-1.9-.4-3.9-.2-5.9.4-1.7.6-3.2,1.4-4.3,2.6-1.2,1.2-2,2.6-2.6,4.1-.6,1.5-.9,3.2-.9,4.9,0,1.7.2,3.4.8,5.1.6,1.8,1.4,3.3,2.5,4.7,1.1,1.4,2.4,2.5,3.8,3.4,1.4.9,3,1.4,4.6,1.7,1.6.3,3.3.1,4.9-.4,1.8-.6,3.3-1.5,4.7-2.9,1.3-1.3,2.4-3.2,3.3-5.4l-1.8-5.7-6.6,2.1-.5-1.7,8.4-2.7,4.6,14.4-1.8.6-1.5-4.6Z"/>
    </g>
  </g>
  <g class="st2">
    <g class="st2">
      <path d="M467.7,199.1l2.1-.2,5.6,10.8,3.5-11.7,2.1-.2-4.1,13.6,7.8,14.5,9-29.5,2.4-.2-10.1,32.2-2,.2-8.2-15.3-5.2,16.6-2,.2-15.9-29.8,2.4-.2,14.3,27.3,4.9-15.7-6.6-12.6Z"/>
    </g>
  </g>
  <g class="st2">
    <g class="st2">
      <path d="M515.6,197.5h1.9c0,.1,11.1,31.9,11.1,31.9h-2.3c0-.1-3.7-10.6-3.7-10.6l-14.5-.8-4.8,10h-2.4c0-.1,14.8-30.5,14.8-30.5ZM522.1,217l-5.7-16.7-7.7,15.9,13.4.8Z"/>
    </g>
  </g>
  <g class="st2">
    <g class="st2">
      <path d="M536.4,230.7l5.6-30.6,2.2.4-5.2,28.6,17.9,3.3-.4,2-20.1-3.7Z"/>
    </g>
  </g>
  <g class="st2">
    <g class="st2">
      <path d="M564.2,236.5l9.1-29.8,2.1.6-5.6,18.1,22.6-12.8,2.4.7-16.1,9.3,7.6,20.6-2.4-.7-7-19-7.9,4.4-2.8,9.2-2.1-.6Z"/>
    </g>
  </g>
  <g class="st2">
    <g class="st2">
      <path d="M593.4,246.4l11.8-28.8,2,.8-11.8,28.8-2-.8Z"/>
    </g>
  </g>
  <g class="st2">
    <g class="st2">
      <path d="M620.7,228.9l-12.7,23.8-1.9-1,14.7-27.5,1.5.8,6,34.3,12.9-24.2,1.9,1-14.7,27.5-1.8-1-5.9-33.7Z"/>
    </g>
  </g>
  <g class="st2">
    <g class="st2">
      <path d="M658.8,278.9c-4.4,1-8.2.3-11.3-2-1.7-1.2-2.9-2.7-3.8-4.5-.9-1.8-1.4-3.6-1.5-5.6-.1-1.9,0-3.9.6-5.9.5-2,1.4-3.7,2.6-5.3,1.2-1.6,2.7-3,4.4-4.2,1.7-1.1,3.5-1.9,5.3-2.3,1.9-.4,3.8-.5,5.6-.2,1.9.3,3.7,1.1,5.3,2.3,1.2.9,2.2,1.8,3,2.8.8,1,1.4,2,1.8,3.1.4,1.1.7,2.1.7,3.2,0,1.1,0,2.2-.2,3.3l-2.1-.2c.4-2.3.2-4.3-.7-6-.8-1.8-2.1-3.3-3.8-4.5-1.5-1.1-3-1.7-4.7-1.9-1.6-.2-3.3-.1-4.9.3-1.6.4-3.1,1.1-4.5,2.1-1.4,1-2.6,2.2-3.6,3.6-1.1,1.5-1.9,3.1-2.3,4.8-.5,1.7-.6,3.4-.5,5.1.1,1.7.6,3.2,1.4,4.7.8,1.5,1.8,2.7,3.2,3.7,1.5,1.1,3.2,1.8,5.1,2.1,1.9.3,4,.1,6.4-.5l3.6-4.8-5.6-4.1,1.1-1.4,7.1,5.2-9,12.2-1.5-1.1,2.9-3.9Z"/>
    </g>
  </g>
  <circle cx="214.9" cy="500" r="7.6"/>
  <circle class="st1" cx="500" cy="500" r="236.4"/>
  <circle class="st1" cx="500" cy="500" r="342.2"/>
  <circle cx="786.5" cy="500" r="7.7"/>
  <g>
    <g>
      <path class="st0" d="M591.8,366.9s18.5,7.4,21,34.5c.4,4.3-1.3,10.5-5.8,11.8-6,1.7-11.3-2.7-15-6.8-3.5-3.9-7.3-8.2-9.9-12.9-.2-.3-.5-.7-.5-1,0-.9-12,4.4-19.2-5.5-1.5-2.1-2.6-4.4-3.2-6.9-.5-2.3-.7-4.6-.4-7,.4-4.7,1.8-8.5,5.1-11.8,3-3.1,6.9-5.3,11-6.7,4.9-1.6,10-1.8,15.1-1.8s10.3-.3,15.3.8c6.7,1.4,12.3,5.3,16.8,10.3,3.8,4.2,7.8,9.4,13.1,11.8.9.4,1.8.7,2.8.8,3.5.2,7,0,10.5,0,2.1,0,4.3,0,6.2,1,4.1,2.3,3.6,7.4,2.4,11.3-1.2,4.2-7.5,21.6-24.2,25-8.1,1.7-17.3,3.4-22.3,10.7-4,5.9-5.3,13.5-5.6,20.5-.3,5.1,0,10.3.8,15.3.7,4.1,1.8,8.2,3.5,12,1.4,3.3,3.7,6.2,4.8,9.6,1,2.9,1.2,6,1.1,9.1-.3,6.8-2.7,13.5-6.1,19.4-1.1,1.9-2.3,3.7-3.7,5.5-8.6,11.1-17.2,21-4.7,50.8,2.4,5.6,2.5,12.6,2.7,18.6.1,2.9.1,5.9,0,8.8,0,3.5,0,6.8,1.2,10.2.7,2,1.6,4,2.7,5.9,2.8,4.8,7,8.8,12.1,11.1,1.3.6,2.6,1,4,1.4,5.9,2,15.3,3,15.3,14.1-.3,1.4,1.1,11.1-15.7,10.3s-16.7-.9-16.7-.9c-1.9,0-3.6-.6-5.2-1.7-4.1-2.9-4.1-7.9-5.8-12.1-2-4.9-5.1-8.7-9-12.2-3.6-3.3-7.8-7.3-10.2-11.6-1.8-3.3-1.9-8-2-11.7-.2-8.5-.3-17.1-.6-25.7-.4-14.5-7.2-27.9-17.6-37.8-4.7-4.5-11.6-8.3-18.1-8.8-6.5-.5-13.8,2.2-18.7,6.5-4.2,3.7-5.5,9.4-5.7,14.8-.3,13.3,5.4,25.3,9.8,37.5-3.2-6.9-8.6-14.7-16.3-16.8-1.3-.4-2.7-.5-4.1-.5-5.8.1-10.6,3.5-13.5,8.4-3.7,6.2-4.6,13.7-4.5,20.8.3,20.5,10.8,37.4,30.2,45.7,6.8,2.9,14.4,3.7,21.8,2.8,6-.8,15.1-2.7,19.1-7.7,2.4-3,4.1-7.8-.5-9.7-1.1-.5-2.4-.5-3.7-.5-12.4-.2-24.4,2.5-36.2,5.9-8.1,2.3-16.4,4.5-24.6,6.7-5.9,1.5-11.8,3.1-17.9,3.9-11.1,1.4-24.3,1.5-33.7-5.6"/>
      <g class="st2">
        <g class="st2">
          <path d="M324.7,491.8c.4-.8,2.2-7.1,4-14.7-3.9-.8-6.1-2.1-6.1-3.4,0-2.3,1.3-6.6,10.2-14.9l.6-3c2.4-12.2,6.9-36.7,7.2-37.9.2-1.3,3.1-1.1,2.6,1.9-.3,1.8-4.4,20.2-8.2,37.1,4.5-4,10.6-8.7,18.9-14.5,28.1-19.5,40.9-23.2,42.4-24.3,1.5-1.1,2.5-1.2,1.5.4-1.5,2.7-15.6,8.2-41.1,25.2-10.6,7-17.8,12.9-22.7,17.6l-3.3,14.5c5.3.8,13.8,1.1,24.1.5,17.3-1,25.7-3,28.3-4,2.6-1,3-.6,2.1.2-.9.8-9.3,4.2-28.7,5.8-10.9.8-20.1.3-26.2-.8l-1.5,6.6c-2.1,8.2-2.1,9-3.1,9.2-1,.3-1.7-.2-.9-1.4ZM329.1,475.5l2.7-12c-5.3,5.5-7,9-7,10.1s1.5,1.4,4.3,1.9Z"/>
        </g>
      </g>
      <g class="st2">
        <g class="st2">
          <path d="M443.4,460.8c.5-.3,2.7-.2.9.9-6.8,4.4-28.5,14.3-35.3,14.3s-6.5-3-6.5-5.1.4-3.2.2-3.4c-.3-.3-.9-.2-4.2,1.5-3,1.7-6.3,3.1-7.3,3.1s-2.5-.9-2.5-1.5c0-1.9,1.2-4.6,5.1-7.5,3.3-2.6,5.3-3.1,7.1-3.1s3.8,3.7,2.8,3.7-1.3-2.1-2.5-2.1-3.1.8-5.9,2.8c-2.7,1.7-4.7,4.7-4.7,5.5s.1.3.4.3c.9,0,2.7-.7,5.5-2.2,3.9-1.8,6.5-3.3,7.7-3.3s1.3.2,1.3.9-1,2.7-1,5,1.8,3.1,4.5,3.1c7.2,0,28-9.6,34.3-13Z"/>
        </g>
        <g class="st2">
          <path d="M437.5,488.5c.2-6.3,1.7-27.8,4.8-44.3.7-3.8,1.4-7.2,2.2-10.3-20,0-21.8.1-22.3-1.4-.2-.9,2.7-2.2,3.5-1.6,1,.6,1.7.9,4.7.9h14.6c3.3-13,6.4-18.4,7.8-18.4s1.4,2.5,1.2,3.4c-.3,1.2-.7-.5-1.8,1.9-.2.3-2.4,5.9-4.3,13.1,3.6,0,4.9.3,15.1.3s11.9-.5,12.2.6c.2,1.2-4.8,1.1-12.5,1.1h-15.4c-.9,3.7-1.8,7.6-2.5,11.4-.9,5-2.5,13.9-3.8,24.7-.8,5.8-1.8,20.4-1.2,25.3.5,3.9,1.3,4.3-.1,4.5-1.3.3-2.3-3.8-2.2-11.4Z"/>
        </g>
        <g class="st2">
          <path d="M487.1,461.6c-1.2.3-6.2,3.1-17.9,7.1-9.3,3.2-11.7,3.7-13.3,3.7-2.7,0-3.5-1.8-3.5-3.5s.4-4.2,1-5.9c.4-1.4.9-2.3,2.7-2.6.5-.1,1.1.5.5,1.6-1.5,3.2-1.8,5.1-2.1,6.8-.1,1.2.4,1.8.9,1.8,1.3,0,4.2-.3,12.9-3.4,10-3.6,17.7-6.9,18.4-6.9s.9,1,.4,1.2ZM457.4,450.4c.2-.6,1-1.7,1.6-1.6.9.2,1.5,1.4,1.3,2.4-.3.9-1.6,2.1-2.3,1.9-.5-.2-.9-1.9-.7-2.7Z"/>
        </g>
        <g class="st2">
          <path d="M481.4,465.7c2.1-4.7,6.2-6.6,8.3-6.2,1.9.3,2.6,1.9,1.7,4.3-1.2,3.2-5,5.4-8.7,6.7.4,1.4,1.7,2.2,3.6,2.1,4.7-.4,11.3-3.7,29.8-11.8,1.3-.6,1.6.7.8,1-15.6,6.9-24.4,12.3-30,12.7-5.3.4-7.7-4.1-5.5-8.8ZM482.6,469.3c3-1,6.6-3.9,7.4-6.2.3-.9.2-1.8-.5-2.1-1.1-.3-4.4,1-6.2,5.3-.5,1.1-.7,2.1-.7,2.9Z"/>
          <path d="M517.1,449.4c.2-.4,1.2-1.1,1.7-4.3.3-2.6-.6-3-.6-3.5.2-.5,1.3-1.5,2.1-.3.6,1.3.7,3.1.3,5-.6,1.9-1.5,4.5-3.2,4.2-.5,0-.6-.7-.3-1.1Z"/>
          <path d="M530.7,455.1c.5,2.1,2.3,5.8,3.8,10.5,4.1-3.3,7.9-5.7,11.8-7.5.3-.2,1.5-.4,1.9-.3.8.3-.2.7-.8,1-3.4,1.3-7.7,4.6-12.3,8.7,1.2,4.1,2.3,8.6,2.3,13.3,0,10.9-9.1,17.4-15.1,17.4s-8.8-12.2,4.9-25.9c1.9-1.9,3.8-3.7,5.5-5.2-1.3-4-3-7.8-3.7-10.8-1.5-5.6,2.2-10,5.2-10.4,2.4-.3,2.3,1,1.2,1.5-3.8,2.3-5.4,5-4.8,7.6ZM533.4,469.1l-4.4,4.3c-12.4,12.5-12.2,23.2-7.8,23.2,6.6,0,14.3-7.6,14.3-17s-.9-7-2.1-10.5Z"/>
        </g>
      </g>
    </g>
    <g class="st2">
      <g class="st2">
        <path d="M459,508.8v-20.8h1.5v12.6l12.1-12.6h1.7l-8.6,9.1,9.1,11.7h-1.7l-8.4-10.8-4.2,4.4v6.4h-1.5Z"/>
      </g>
      <g class="st2">
        <path d="M475.9,494.6c0-1,.2-1.9.6-2.8s.9-1.6,1.6-2.3c.7-.6,1.4-1.2,2.3-1.5.9-.4,1.8-.6,2.9-.6s2.1.2,3,.6c.9.4,1.7.9,2.3,1.7.7.7,1.2,1.6,1.6,2.7s.6,2.2.6,3.5c0,2.2-.2,4.1-.6,5.7s-.9,2.9-1.6,4-1.5,1.8-2.4,2.3-1.9.8-3.1.8-2.7-.4-3.7-1.1-1.9-1.7-2.4-3l1-.8c.4,1.1,1.1,1.9,2,2.5s2,1,3.1,1,1.8-.2,2.5-.7,1.4-1.1,1.9-1.9.9-1.9,1.2-3.1c.3-1.2.5-2.6.5-4.2-.2.6-.5,1.2-.9,1.7-.4.5-.9,1-1.4,1.3-.5.4-1.1.7-1.8.9s-1.3.3-2,.3c-1,0-1.9-.2-2.8-.6-.9-.4-1.6-.9-2.3-1.5-.6-.6-1.2-1.4-1.5-2.3-.4-.9-.6-1.8-.6-2.8ZM483.2,488.8c-.8,0-1.6.2-2.3.5-.7.3-1.3.7-1.9,1.2-.5.5-.9,1.1-1.3,1.8-.3.7-.5,1.5-.5,2.3s.2,1.6.5,2.3c.3.7.7,1.3,1.3,1.8s1.1.9,1.9,1.3,1.5.5,2.3.5,1.6-.2,2.3-.5,1.3-.7,1.9-1.3.9-1.1,1.3-1.8c.3-.7.5-1.5.5-2.3s-.2-1.5-.5-2.2c-.3-.7-.7-1.3-1.3-1.8-.5-.5-1.1-.9-1.9-1.3-.7-.3-1.5-.5-2.3-.5Z"/>
      </g>
      <g class="st2">
        <path d="M499.1,509.1c-1.2,0-2.3-.2-3.4-.6-1.1-.4-2-1-2.8-1.8l.7-1c.8.7,1.7,1.3,2.5,1.6s1.8.5,2.9.5,2.4-.3,3.2-.8,1.2-1.3,1.2-2.3-.1-.9-.3-1.2-.5-.6-.9-.8c-.4-.2-.9-.4-1.5-.6-.6-.2-1.3-.4-2.1-.6-.9-.2-1.6-.4-2.2-.6-.6-.2-1.2-.4-1.6-.7s-.7-.6-.9-1-.3-.9-.3-1.5.1-1.4.4-2c.3-.6.7-1,1.2-1.4.5-.4,1.1-.6,1.8-.8.7-.2,1.4-.3,2.2-.3,1.2,0,2.2.2,3.2.6.9.4,1.6.9,2.1,1.5l-.8.8c-.5-.6-1.2-1-2-1.3-.8-.3-1.7-.4-2.6-.4s-1.1,0-1.6.2-.9.3-1.3.6c-.4.3-.7.6-.9,1-.2.4-.3.9-.3,1.4s0,.8.2,1.1.4.5.7.7.7.4,1.2.5c.5.1,1.1.3,1.8.5,1,.2,1.8.5,2.5.7.7.2,1.4.5,1.9.8s.9.7,1.1,1.1.4,1,.4,1.6c0,1.4-.5,2.5-1.6,3.3s-2.5,1.2-4.3,1.2Z"/>
      </g>
    </g>
  </g>
  <g class="st2">
    <g class="st2">
      <path d="M334.4,750.7l-.4-5.1c-1.6.5-3.1.6-4.7.5-1.5-.2-3-.7-4.3-1.7-.9-.6-1.6-1.4-2.2-2.2-.6-.9-1-1.8-1.2-2.8-.2-1-.2-2,0-3,.2-1,.7-2,1.4-3,.6-.8,1.2-1.4,2-1.9.7-.5,1.5-.9,2.4-1.1.8-.3,1.7-.4,2.7-.5.9-.1,1.9-.2,2.9-.2,0-1.1-.1-2,0-2.8,0-.8,0-1.5.1-2.2,0-.6.2-1.2.4-1.7.2-.5.4-.9.7-1.3.5-.7,1.1-1.2,1.8-1.7.7-.4,1.5-.7,2.2-.8.8-.1,1.6-.1,2.4,0,.8.2,1.6.6,2.3,1.1.7.5,1.2,1.1,1.6,1.7.4.6.7,1.3.8,2,.1.7.1,1.4,0,2.2-.2.7-.5,1.4-.9,2.1-.5.7-1.1,1.2-1.7,1.6-.7.4-1.4.7-2.3.9-.8.2-1.7.3-2.6.4s-1.9,0-2.9.1l1,12c1.1-.6,2.1-1.3,3.1-2.1,1-.9,1.9-1.8,2.7-3l1.3.9c-2,2.6-4.3,4.6-6.9,5.8l.6,7.2-2-1.4ZM326.2,743.1c1.1.8,2.3,1.3,3.7,1.4,1.3,0,2.7,0,4-.6l-1-12.7c-.9,0-1.7,0-2.5.2-.8,0-1.6.3-2.3.5-.7.2-1.4.5-2,1-.6.4-1.2,1-1.6,1.6-.6.8-.9,1.6-1,2.4-.1.8,0,1.6.1,2.4.2.8.6,1.5,1.1,2.2.5.7,1.1,1.2,1.7,1.7ZM335.4,722.5c-.2.3-.4.6-.5.9-.1.3-.2.8-.3,1.3,0,.5,0,1.2,0,1.9,0,.8,0,1.7.1,2.8,2,0,3.7-.1,5.1-.4,1.4-.2,2.4-.9,3.2-1.9.7-.9.9-1.9.7-3-.2-1.1-.8-2-1.8-2.7-.5-.4-1.1-.6-1.7-.8-.6-.1-1.2-.1-1.8,0-.6,0-1.1.3-1.6.6-.5.3-.9.7-1.3,1.2Z"/>
    </g>
  </g>
  <g class="st2">
    <g class="st2">
      <path d="M387.3,747.8l-13.7,25.8-1.6-.9,6.6-12.3-14.5-7.7-6.6,12.3-1.6-.9,13.7-25.8,1.6.9-6.3,11.8,14.5,7.7,6.3-11.8,1.6.9Z"/>
    </g>
  </g>
  <g class="st2">
    <g class="st2">
      <path d="M394.2,782.8c-1.7-.7-3-1.7-4.1-3-1.1-1.3-1.8-2.9-2.3-4.5-.5-1.7-.7-3.4-.5-5.3.1-1.9.5-3.7,1.2-5.4.7-1.8,1.7-3.4,3-4.8,1.2-1.4,2.6-2.6,4.2-3.4,1.5-.9,3.1-1.4,4.8-1.6,1.7-.2,3.3,0,4.9.7,1.7.7,3,1.7,4.1,3.1,1.1,1.4,1.8,2.9,2.3,4.6.5,1.7.6,3.5.5,5.3-.1,1.9-.5,3.6-1.2,5.3-.7,1.8-1.7,3.5-3,4.9-1.2,1.4-2.6,2.5-4.1,3.4-1.5.8-3.1,1.4-4.8,1.6-1.7.2-3.3,0-4.9-.7ZM390.2,765.2c-.6,1.5-1,3.1-1.1,4.8-.1,1.6,0,3.2.4,4.6s1.1,2.7,2,3.9,2.1,2,3.5,2.6c1.4.6,2.9.8,4.3.6,1.4-.2,2.8-.7,4.1-1.5,1.3-.8,2.4-1.8,3.5-3,1-1.2,1.8-2.6,2.4-4.1.6-1.5,1-3.1,1.1-4.8.1-1.6,0-3.2-.4-4.6s-1-2.7-1.9-3.9c-.9-1.1-2-2-3.4-2.5-1.4-.6-2.9-.8-4.3-.6s-2.8.7-4.1,1.5c-1.3.8-2.5,1.8-3.5,3-1,1.2-1.8,2.6-2.4,4.1Z"/>
    </g>
  </g>
  <g class="st2">
    <g class="st2">
      <path d="M438.3,797l6.7-24.3-15.1,16.2-1.1-.3-4.6-21.7-6.7,24.3-1.8-.5,7.8-28.1,1.8.5,4.9,23,16-17.2,1.8.5-7.8,28.1-1.8-.5Z"/>
    </g>
  </g>
  <g class="st2">
    <g class="st2">
      <path d="M469.7,800.8l-.3,1.9-17.1-2.8,4.7-28.8,16.8,2.7-.3,1.9-14.9-2.4-1.8,11.3,13,2.1-.3,1.8-13-2.1-1.9,12,15.2,2.5Z"/>
    </g>
  </g>
  <g class="st2">
    <g class="st2">
      <path d="M512.9,797.5c0,1.1-.2,2.1-.6,3-.4.9-.9,1.7-1.5,2.4-.6.7-1.4,1.2-2.3,1.6s-1.8.5-2.7.5l-12.1-.2.4-29.2,12.1.2c.9,0,1.7.2,2.4.7.7.4,1.3,1,1.8,1.7.5.7.9,1.5,1.2,2.4.3.9.4,1.8.4,2.7,0,1.5-.4,2.8-1,4.1-.7,1.2-1.6,2.1-2.8,2.7,1.5.5,2.6,1.5,3.5,2.8.8,1.4,1.3,2.9,1.2,4.6ZM511,797.2c0-.8,0-1.5-.3-2.2s-.6-1.4-1-1.9c-.4-.6-.9-1-1.5-1.4-.6-.3-1.2-.5-1.9-.5l-10.5-.2-.2,12h10.3c.7.2,1.4,0,2-.3.6-.3,1.2-.8,1.6-1.3.5-.6.8-1.2,1.1-1.9.3-.7.4-1.4.4-2.2ZM495.9,777.5l-.2,11.7h9.5c.7.1,1.4,0,1.9-.3.6-.3,1.1-.7,1.5-1.3.4-.5.8-1.1,1-1.9.3-.7.4-1.4.4-2.2,0-.8,0-1.5-.3-2.2-.2-.7-.5-1.3-.9-1.9-.4-.5-.9-1-1.4-1.3-.6-.3-1.2-.5-1.9-.5h-9.7Z"/>
    </g>
  </g>
  <g class="st2">
    <g class="st2">
      <path d="M533.9,803.8c-1.8.2-3.5,0-5-.8-1.6-.7-2.9-1.7-4.2-2.9-1.2-1.3-2.2-2.7-2.9-4.5-.8-1.7-1.2-3.5-1.4-5.4-.2-1.9,0-3.8.4-5.7.4-1.8,1.1-3.5,2.1-5s2.1-2.7,3.5-3.6,3-1.5,4.7-1.7c1.8-.2,3.5,0,5.1.8,1.6.7,3,1.7,4.2,3,1.2,1.3,2.2,2.8,2.9,4.5.8,1.7,1.2,3.5,1.4,5.3.2,2,0,3.9-.4,5.7-.4,1.8-1.1,3.5-2.1,4.9-.9,1.5-2.1,2.7-3.5,3.6-1.4,1-3,1.5-4.7,1.7ZM522.2,790.1c.2,1.7.6,3.2,1.2,4.7.7,1.5,1.5,2.8,2.5,3.9,1,1.1,2.2,1.9,3.5,2.5,1.3.6,2.8.8,4.3.7,1.6-.2,2.9-.7,4.1-1.5,1.2-.9,2.1-1.9,2.9-3.2.8-1.3,1.3-2.7,1.6-4.3.3-1.6.4-3.2.3-4.7-.2-1.7-.6-3.2-1.2-4.7-.7-1.5-1.5-2.8-2.5-3.9-1-1.1-2.2-1.9-3.5-2.5-1.3-.6-2.7-.8-4.2-.7-1.6.2-2.9.7-4.1,1.5-1.2.9-2.2,1.9-2.9,3.2s-1.3,2.7-1.7,4.3-.4,3.2-.3,4.7Z"/>
    </g>
  </g>
  <g class="st2">
    <g class="st2">
      <path d="M557.4,770.4l1.6-.3,16.9,26.2-1.9.4-5.6-8.6-12.1,2.6-1.5,10.2-2,.4,4.6-30.9ZM567.5,786.4l-8.8-13.7-2.4,16.2,11.2-2.4Z"/>
    </g>
  </g>
  <g class="st2">
    <g class="st2">
      <path d="M585.1,793.4l-9.5-27.6,10.2-3.5c1-.4,2.1-.4,3.1-.3,1,.2,2,.6,2.9,1.2.9.6,1.7,1.3,2.4,2.2.7.9,1.2,1.9,1.6,2.9.3,1,.5,2,.6,3.1,0,1,0,2-.3,3-.2.9-.6,1.8-1.2,2.5-.5.7-1.2,1.3-2,1.8l9.8,8.6-2,.7-9.5-8.4-8,2.7,3.6,10.4-1.8.6ZM582.7,780.6l8.6-3c.8-.3,1.4-.7,1.9-1.3.5-.6.9-1.3,1.1-2.1.2-.8.3-1.6.3-2.5,0-.9-.2-1.8-.5-2.6-.3-.9-.7-1.7-1.3-2.4-.6-.7-1.2-1.3-1.9-1.8-.7-.5-1.5-.7-2.2-.9-.8-.1-1.6,0-2.3.2l-8.4,2.9,4.7,13.6Z"/>
    </g>
  </g>
  <g class="st2">
    <g class="st2">
      <path d="M612.9,783.1l-12.9-26.2,7.7-3.8c1.8-.9,3.6-1.4,5.3-1.4,1.7,0,3.3.4,4.8,1.1,1.5.7,2.9,1.8,4.1,3.1,1.2,1.4,2.3,2.9,3.2,4.7,1,2,1.6,3.9,1.9,5.8.3,1.9.2,3.6-.2,5.2-.4,1.6-1.1,3.1-2.2,4.4-1.1,1.3-2.4,2.4-4.1,3.2l-7.7,3.8ZM623.6,761.5c-.8-1.6-1.8-3.1-2.9-4.2s-2.3-2.1-3.6-2.7c-1.3-.6-2.7-.9-4.1-.9-1.4,0-2.9.4-4.4,1.1l-6.1,3,11.2,22.8,6.1-3c1.5-.8,2.7-1.7,3.6-2.9s1.5-2.4,1.7-3.9c.3-1.4.3-2.9,0-4.5-.3-1.6-.8-3.2-1.6-4.8Z"/>
    </g>
  </g>
  <g class="st2">
    <g class="st2">
      <path d="M640.6,768.3l-15.3-24.8,1.6-1,15.3,24.8-1.6,1Z"/>
    </g>
  </g>
  <g class="st2">
    <g class="st2">
      <path d="M638.7,739.6l15.4,20-1.5,1.1-17.8-23.1,1.1-.9,30.1,9.2-15.7-20.3,1.5-1.1,17.8,23.1-1.4,1-29.6-9.1Z"/>
    </g>
  </g>
  <g class="st2">
    <g class="st2">
      <path d="M689.3,722c.5,4-.3,7.2-2.7,9.6-1.2,1.3-2.7,2.1-4.3,2.6-1.7.5-3.4.6-5.1.4-1.8-.2-3.5-.7-5.2-1.5-1.7-.8-3.2-1.8-4.5-3.1-1.4-1.3-2.5-2.8-3.4-4.5-.9-1.7-1.4-3.4-1.7-5.1-.2-1.7-.2-3.4.3-5,.4-1.6,1.3-3,2.5-4.3.9-.9,1.8-1.7,2.8-2.2.9-.5,1.9-.9,2.9-1.1,1-.2,1.9-.2,2.9-.1,1,.1,1.9.3,2.9.7l-.3,1.8c-2-.7-3.8-.8-5.4-.4-1.6.4-3.1,1.3-4.4,2.6-1.1,1.1-1.8,2.4-2.1,3.8-.3,1.4-.4,2.8-.1,4.3s.8,2.9,1.6,4.3c.8,1.4,1.8,2.7,2.9,3.8,1.2,1.2,2.6,2.1,4.1,2.8,1.5.7,3,1.1,4.5,1.3,1.5.1,2.9,0,4.3-.4,1.4-.4,2.6-1.2,3.6-2.2,1.1-1.1,1.9-2.5,2.3-4.1.4-1.6.4-3.5,0-5.7l-4-3.9-4.1,4.2-1.2-1.2,5.2-5.4,10.2,9.9-1.1,1.2-3.3-3.2Z"/>
    </g>
  </g>
</svg>