<svg xmlns="http://www.w3.org/2000/svg" version="1.1" xmlns:xlink="http://www.w3.org/1999/xlink" xmlns:svgjs="http://svgjs.dev/svgjs" width="685.84" height="685.84"><svg id="SvgjsSvg1001" data-name="Layer 1" xmlns="http://www.w3.org/2000/svg" viewBox="0 0 685.84 685.84">
  <defs>
    <style>
      .cls-1, .cls-2, .cls-3 {
        fill: none;
        stroke: #000;
        stroke-linecap: round;
        stroke-miterlimit: 10;
      }

      .cls-4 {
        isolation: isolate;
      }

      .cls-2 {
        stroke-width: 1.5px;
      }

      .cls-3 {
        stroke-width: 4px;
      }
    </style>
  </defs>
  <g class="cls-4">
    <g class="cls-4">
      <path d="M195.15,119.27l-17.12-26.02,8.47-5.58c2.01-1.32,4-2.14,5.97-2.46,1.97-.32,3.84-.22,5.62.29,1.78.51,3.43,1.39,4.97,2.63,1.54,1.25,2.9,2.76,4.07,4.54,1.3,1.98,2.2,3.95,2.69,5.92.49,1.97.58,3.87.28,5.7-.31,1.83-1,3.55-2.09,5.15-1.09,1.61-2.55,3.02-4.39,4.23l-8.47,5.58ZM205.31,93.9c-1.08-1.64-2.3-2.99-3.66-4.08-1.36-1.08-2.81-1.83-4.34-2.26-1.53-.43-3.12-.5-4.76-.23-1.64.27-3.28.95-4.94,2.04l-6.64,4.37,14.9,22.64,6.64-4.37c1.67-1.1,2.96-2.36,3.87-3.78.9-1.42,1.45-2.92,1.63-4.51.19-1.59.05-3.23-.42-4.9-.46-1.67-1.23-3.31-2.29-4.93Z"></path>
    </g>
  </g>
  <g class="cls-4">
    <g class="cls-4">
      <path d="M234.9,96.18c-1.91.92-3.85,1.34-5.82,1.28-1.97-.06-3.84-.48-5.61-1.25-1.77-.77-3.37-1.87-4.82-3.29-1.44-1.42-2.59-3.02-3.45-4.81-.9-1.87-1.43-3.82-1.59-5.85-.16-2.03.01-3.98.53-5.85.52-1.87,1.38-3.57,2.58-5.1,1.2-1.53,2.72-2.74,4.56-3.62,1.91-.92,3.86-1.34,5.85-1.27,1.99.07,3.86.51,5.63,1.31,1.77.81,3.37,1.91,4.81,3.31,1.44,1.4,2.57,2.97,3.4,4.71.91,1.9,1.45,3.86,1.61,5.89s-.02,3.97-.54,5.83c-.52,1.86-1.39,3.55-2.59,5.08-1.2,1.53-2.72,2.74-4.56,3.62ZM217.18,87.16c.77,1.61,1.78,3.03,3.02,4.27,1.24,1.24,2.63,2.19,4.14,2.88,1.52.68,3.11,1.04,4.79,1.09,1.67.04,3.31-.32,4.91-1.09,1.65-.79,2.98-1.86,3.96-3.21.99-1.35,1.67-2.84,2.06-4.46s.48-3.3.28-5.03c-.19-1.72-.65-3.35-1.39-4.88-.77-1.61-1.78-3.03-3.04-4.26-1.26-1.23-2.64-2.19-4.16-2.87-1.52-.68-3.1-1.05-4.75-1.1-1.65-.05-3.26.3-4.83,1.05-1.65.79-2.98,1.87-3.98,3.22-1,1.36-1.7,2.85-2.09,4.48-.39,1.63-.5,3.31-.3,5.03.19,1.72.65,3.35,1.39,4.88Z"></path>
    </g>
  </g>
  <g class="cls-4">
    <g class="cls-4">
      <path d="M276.19,75.1c-1.78,4.13-4.52,6.79-8.23,7.98-1.97.63-3.92.78-5.88.46-1.95-.32-3.76-1.01-5.42-2.04-1.66-1.03-3.11-2.35-4.38-3.94-1.26-1.59-2.19-3.32-2.79-5.18-.62-1.95-.89-3.94-.81-5.96.09-2.02.5-3.92,1.24-5.7.74-1.77,1.8-3.33,3.17-4.68,1.37-1.34,3.03-2.33,4.97-2.95,1.45-.46,2.8-.72,4.06-.77,1.26-.05,2.44.06,3.54.34,1.1.28,2.11.71,3.03,1.29.92.58,1.77,1.27,2.54,2.07l-1.38,1.6c-1.61-1.63-3.36-2.63-5.27-2.99-1.91-.36-3.88-.21-5.93.45-1.72.55-3.15,1.43-4.31,2.62-1.15,1.2-2.02,2.57-2.61,4.11-.59,1.54-.89,3.17-.91,4.9-.02,1.73.24,3.41.76,5.05.56,1.75,1.4,3.32,2.5,4.7,1.1,1.38,2.37,2.5,3.81,3.36,1.44.86,2.98,1.42,4.62,1.67,1.65.26,3.29.12,4.93-.4,1.77-.57,3.32-1.53,4.65-2.88,1.33-1.35,2.44-3.16,3.33-5.44l-1.83-5.72-6.59,2.11-.55-1.71,8.39-2.69,4.62,14.41-1.8.58-1.49-4.64Z"></path>
    </g>
  </g>
  <g class="cls-4">
    <g class="cls-4">
      <path d="M310.65,42.07l2.14-.2,5.59,10.84,3.48-11.69,2.14-.2-4.12,13.56,7.79,14.51,8.98-29.48,2.4-.23-10.1,32.23-2.01.19-8.17-15.31-5.22,16.57-2.01.19-15.88-29.79,2.35-.22,14.35,27.29,4.87-15.7-6.57-12.55Z"></path>
    </g>
  </g>
  <g class="cls-4">
    <g class="cls-4">
      <path d="M358.48,40.43l1.89.11,11.07,31.83-2.32-.13-3.65-10.49-14.55-.84-4.84,10-2.36-.14,14.76-30.34ZM364.98,59.87l-5.71-16.67-7.72,15.9,13.43.78Z"></path>
    </g>
  </g>
  <g class="cls-4">
    <g class="cls-4">
      <path d="M379.33,73.66l5.61-30.63,2.16.39-5.24,28.65,17.93,3.28-.36,1.98-20.08-3.68Z"></path>
    </g>
  </g>
  <g class="cls-4">
    <g class="cls-4">
      <path d="M407.13,79.37l9.15-29.77,2.1.64-5.55,18.07,22.56-12.84,2.42.74-16.13,9.31,7.6,20.64-2.38-.73-6.97-19.03-7.88,4.42-2.82,9.18-2.1-.64Z"></path>
    </g>
  </g>
  <g class="cls-4">
    <g class="cls-4">
      <path d="M436.33,89.31l11.79-28.82,2.03.83-11.79,28.82-2.03-.83Z"></path>
    </g>
  </g>
  <g class="cls-4">
    <g class="cls-4">
      <path d="M463.63,71.78l-12.68,23.76-1.93-1.03,14.66-27.48,1.48.79,5.98,34.26,12.9-24.19,1.93,1.03-14.66,27.48-1.78-.95-5.91-33.67Z"></path>
    </g>
  </g>
  <g class="cls-4">
    <g class="cls-4">
      <path d="M501.73,121.8c-4.39.99-8.15.33-11.29-1.98-1.66-1.22-2.94-2.72-3.82-4.49-.88-1.77-1.39-3.63-1.53-5.58-.14-1.95.07-3.9.62-5.86.55-1.96,1.4-3.72,2.56-5.3,1.21-1.65,2.66-3.03,4.35-4.15,1.69-1.12,3.47-1.9,5.34-2.34,1.87-.44,3.75-.5,5.65-.18,1.9.32,3.67,1.08,5.31,2.29,1.22.9,2.23,1.84,3.01,2.84.78.99,1.38,2.01,1.8,3.06.42,1.05.67,2.12.74,3.21.07,1.09.01,2.18-.18,3.26l-2.1-.18c.38-2.26.15-4.27-.68-6.02-.83-1.75-2.11-3.26-3.84-4.53-1.46-1.07-3.01-1.72-4.65-1.94-1.65-.23-3.26-.13-4.86.3-1.59.43-3.09,1.14-4.5,2.14-1.41,1-2.62,2.19-3.64,3.58-1.09,1.48-1.87,3.08-2.34,4.79-.47,1.71-.63,3.39-.49,5.06.14,1.67.6,3.24,1.36,4.72.76,1.48,1.83,2.73,3.22,3.75,1.5,1.1,3.19,1.8,5.06,2.08,1.87.28,3.99.12,6.37-.5l3.55-4.84-5.58-4.09,1.06-1.45,7.1,5.21-8.95,12.2-1.52-1.12,2.88-3.93Z"></path>
    </g>
  </g>
  <circle cx="57.84" cy="342.92" r="7.65"></circle>
  <circle class="cls-3" cx="342.92" cy="342.92" r="236.38"></circle>
  <circle class="cls-2" cx="342.92" cy="342.92" r="342.17"></circle>
  <circle cx="629.39" cy="342.92" r="7.65"></circle>
  <g>
    <g>
      <path class="cls-1" d="M434.77,209.8s18.5,7.39,21,34.5c.39,4.26-1.27,10.48-5.85,11.76-6.04,1.69-11.34-2.72-15.03-6.84-3.54-3.94-7.29-8.24-9.91-12.88-.16-.28-.49-.67-.49-1.01,0-.94-12.04,4.38-19.24-5.47-1.5-2.06-2.6-4.4-3.18-6.88-.54-2.28-.65-4.64-.44-6.97.44-4.72,1.82-8.46,5.12-11.83,3.05-3.11,6.89-5.34,11.01-6.68,4.86-1.59,10-1.75,15.06-1.75s10.27-.29,15.27.75c6.68,1.39,12.3,5.3,16.76,10.33,3.77,4.24,7.8,9.42,13.11,11.78.89.4,1.84.7,2.82.76,3.48.22,6.97.02,10.46.03,2.14,0,4.26,0,6.18,1.05,4.09,2.26,3.57,7.44,2.44,11.28-1.25,4.22-7.51,21.58-24.24,25.03-8.11,1.67-17.28,3.36-22.28,10.68-4.05,5.93-5.28,13.48-5.63,20.52-.26,5.1-.05,10.27.78,15.32.68,4.13,1.82,8.2,3.47,12.05,1.42,3.3,3.65,6.21,4.81,9.63.98,2.89,1.22,6.03,1.08,9.06-.33,6.82-2.69,13.53-6.09,19.41-1.1,1.9-2.32,3.73-3.67,5.47-8.6,11.11-17.2,20.96-4.69,50.83,2.36,5.63,2.49,12.64,2.72,18.6.11,2.94.13,5.88.08,8.82-.06,3.55,0,6.78,1.16,10.18.7,2.05,1.6,4.03,2.7,5.9,2.82,4.82,6.97,8.76,12.07,11.07,1.28.58,2.61,1.05,3.96,1.43,5.94,2.03,15.33,2.97,15.33,14.08-.31,1.41,1.07,11.13-15.67,10.27s-16.73-.86-16.74-.86c-1.88-.1-3.63-.59-5.2-1.68-4.12-2.86-4.06-7.87-5.75-12.12-1.97-4.92-5.13-8.69-9-12.21-3.6-3.27-7.84-7.27-10.16-11.61-1.76-3.29-1.86-8.02-1.95-11.66-.22-8.55-.34-17.1-.6-25.65-.44-14.46-7.25-27.92-17.62-37.85-4.66-4.47-11.56-8.28-18.07-8.76-6.46-.47-13.85,2.23-18.71,6.46-4.21,3.66-5.51,9.39-5.65,14.75-.35,13.26,5.37,25.26,9.79,37.45-3.15-6.94-8.57-14.7-16.28-16.85-1.34-.37-2.72-.55-4.11-.52-5.76.14-10.61,3.5-13.53,8.39-3.74,6.24-4.64,13.69-4.54,20.83.29,20.47,10.77,37.41,30.16,45.68,6.82,2.91,14.43,3.74,21.76,2.81,6.04-.77,15.08-2.68,19.06-7.7,2.42-3.04,4.12-7.78-.5-9.71-1.14-.48-2.41-.52-3.65-.54-12.38-.18-24.38,2.45-36.22,5.86-8.15,2.35-16.35,4.53-24.56,6.68-5.93,1.55-11.79,3.08-17.87,3.87-11.09,1.43-24.34,1.5-33.67-5.6"></path>
      <g class="cls-4">
        <g class="cls-4">
          <path d="M167.58,334.72c.41-.84,2.15-7.15,4-14.72-3.9-.84-6.05-2.1-6.05-3.45,0-2.27,1.33-6.56,10.15-14.88l.62-3.03c2.36-12.19,6.87-36.66,7.18-37.92.21-1.26,3.08-1.09,2.56,1.93-.31,1.77-4.41,20.18-8.2,37.08,4.51-3.95,10.56-8.75,18.87-14.46,28.1-19.51,40.92-23.21,42.35-24.3,1.54-1.09,2.46-1.18,1.54.42-1.54,2.69-15.59,8.24-41.12,25.23-10.56,6.98-17.84,12.87-22.66,17.58l-3.28,14.46c5.33.76,13.85,1.09,24.1.5,17.33-1.01,25.74-3.03,28.3-4.04,2.56-1.01,2.97-.59,2.05.17-.92.84-9.33,4.2-28.72,5.8-10.87.84-20.1.34-26.15-.76l-1.54,6.56c-2.05,8.16-2.05,9-3.08,9.25-1.03.34-1.74-.17-.92-1.43ZM171.99,318.41l2.67-12.03c-5.33,5.47-6.97,9-6.97,10.09,0,.76,1.54,1.43,4.31,1.93Z"></path>
        </g>
      </g>
      <g class="cls-4">
        <g class="cls-4">
          <path d="M286.33,303.71c.51-.31,2.67-.21.92.92-6.77,4.41-28.51,14.25-35.28,14.25-5.02,0-6.46-2.97-6.46-5.13s.41-3.18.21-3.38c-.31-.31-.92-.21-4.2,1.54-2.97,1.74-6.26,3.08-7.28,3.08-1.44,0-2.46-.92-2.46-1.54,0-1.95,1.23-4.62,5.13-7.49,3.28-2.56,5.33-3.08,7.08-3.08,2.36,0,3.79,3.69,2.77,3.69s-1.33-2.05-2.46-2.05c-1.03,0-3.08.82-5.95,2.77-2.67,1.74-4.72,4.72-4.72,5.54,0,.21.1.31.41.31.92,0,2.67-.72,5.54-2.15,3.9-1.85,6.46-3.28,7.69-3.28.41,0,1.33.21,1.33.92,0,.82-1.03,2.67-1.03,5.03,0,1.74,1.85,3.08,4.51,3.08,7.18,0,28-9.64,34.25-13.02Z"></path>
        </g>
        <g class="cls-4">
          <path d="M280.38,331.4c.21-6.26,1.74-27.79,4.82-44.3.72-3.79,1.44-7.18,2.15-10.26-20,0-21.84.1-22.25-1.44-.21-.92,2.67-2.15,3.49-1.64,1.03.62,1.74.92,4.72.92l14.56.1c3.28-13.13,6.36-18.46,7.79-18.46.82,0,1.44,2.46,1.23,3.38-.31,1.23-.72-.51-1.85,1.95-.21.31-2.36,5.95-4.31,13.13,3.59,0,4.92.31,15.08.31,9.44,0,11.9-.51,12.2.62.21,1.23-4.82,1.13-12.51,1.13h-15.38c-.92,3.69-1.85,7.59-2.46,11.38-.92,5.02-2.46,13.95-3.79,24.72-.82,5.84-1.85,20.41-1.23,25.33.51,3.9,1.33,4.31-.1,4.51-1.33.31-2.26-3.79-2.15-11.38Z"></path>
        </g>
        <g class="cls-4">
          <path d="M330.02,304.53c-1.23.31-6.15,3.08-17.95,7.08-9.33,3.18-11.69,3.69-13.33,3.69-2.67,0-3.49-1.85-3.49-3.49,0-1.54.41-4.2,1.03-5.95.41-1.44.92-2.26,2.67-2.56.51-.1,1.13.51.51,1.64-1.54,3.18-1.85,5.13-2.05,6.77-.1,1.23.41,1.85.92,1.85,1.33,0,4.2-.31,12.92-3.38,10.05-3.59,17.74-6.87,18.36-6.87.51,0,.92,1.03.41,1.23ZM300.27,293.35c.21-.62,1.03-1.74,1.64-1.64.92.21,1.54,1.44,1.33,2.36-.31.92-1.64,2.05-2.26,1.95-.51-.21-.92-1.95-.72-2.67Z"></path>
        </g>
        <g class="cls-4">
          <path d="M324.37,308.63c2.05-4.72,6.15-6.56,8.31-6.15,1.95.31,2.56,1.95,1.74,4.31-1.23,3.18-5.03,5.43-8.72,6.67.41,1.44,1.74,2.15,3.59,2.05,4.72-.41,11.28-3.69,29.84-11.79,1.33-.62,1.64.72.82,1.03-15.59,6.87-24.41,12.31-30.05,12.72-5.33.41-7.69-4.1-5.54-8.82ZM325.5,312.22c2.97-1.03,6.56-3.9,7.38-6.15.31-.92.21-1.85-.51-2.05-1.13-.31-4.41,1.03-6.15,5.33-.51,1.13-.72,2.05-.72,2.87Z"></path>
          <path d="M360.06,292.32c.21-.41,1.23-1.13,1.74-4.31.31-2.56-.62-2.97-.62-3.49.21-.51,1.33-1.54,2.05-.31.62,1.33.72,3.08.31,5.03-.62,1.95-1.54,4.51-3.18,4.21-.51,0-.62-.72-.31-1.13Z"></path>
          <path d="M373.59,298.07c.51,2.05,2.26,5.85,3.79,10.46,4.1-3.28,7.9-5.74,11.79-7.49.31-.21,1.54-.41,1.95-.31.82.31-.21.72-.82,1.03-3.38,1.33-7.69,4.61-12.31,8.72,1.23,4.1,2.26,8.61,2.26,13.33,0,10.87-9.13,17.43-15.08,17.43-8.41,0-8.82-12.2,4.92-25.95,1.95-1.95,3.79-3.69,5.54-5.23-1.33-4-2.97-7.79-3.69-10.77-1.54-5.64,2.15-10.05,5.23-10.36,2.36-.31,2.26,1.03,1.23,1.54-3.79,2.26-5.43,5.03-4.82,7.59ZM376.36,312.01l-4.41,4.31c-12.41,12.51-12.2,23.18-7.79,23.18,6.56,0,14.25-7.59,14.25-17.02,0-3.38-.92-6.97-2.05-10.46Z"></path>
        </g>
      </g>
    </g>
    <g class="cls-4">
      <g class="cls-4">
        <path d="M301.9,351.69v-20.8h1.49v12.63l12.13-12.63h1.73l-8.64,9.11,9.08,11.69h-1.7l-8.35-10.78-4.25,4.37v6.42h-1.49Z"></path>
      </g>
      <g class="cls-4">
        <path d="M318.85,337.53c0-1,.19-1.92.56-2.78s.89-1.61,1.55-2.26c.66-.64,1.44-1.15,2.31-1.52.88-.37,1.84-.56,2.87-.56s2.06.2,2.96.59c.9.39,1.68.95,2.34,1.67.66.72,1.18,1.61,1.55,2.67s.56,2.24.56,3.54c0,2.19-.19,4.08-.56,5.68s-.89,2.93-1.55,3.98-1.46,1.84-2.39,2.34-1.95.76-3.06.76c-1.41,0-2.65-.36-3.74-1.08s-1.89-1.71-2.42-2.96l1.03-.79c.39,1.05,1.05,1.9,1.99,2.55s1.98.97,3.14.97c.92,0,1.75-.22,2.5-.66s1.39-1.08,1.92-1.93.94-1.89,1.25-3.12c.3-1.23.45-2.64.45-4.22-.22.63-.53,1.2-.94,1.71-.41.52-.88.96-1.42,1.33-.54.37-1.13.66-1.77.86s-1.32.31-2.02.31c-1,0-1.92-.19-2.78-.56-.86-.37-1.61-.88-2.26-1.52-.64-.64-1.15-1.4-1.52-2.26-.37-.86-.56-1.78-.56-2.75ZM326.12,331.73c-.8,0-1.56.15-2.27.45-.71.3-1.33.72-1.86,1.25-.53.53-.95,1.14-1.26,1.85-.31.7-.47,1.46-.47,2.26s.16,1.55.47,2.26c.31.7.73,1.32,1.26,1.85s1.15.95,1.86,1.26,1.47.47,2.27.47,1.56-.16,2.27-.47,1.33-.73,1.86-1.26.95-1.14,1.26-1.85c.31-.7.47-1.46.47-2.26s-.16-1.52-.47-2.23c-.31-.7-.73-1.32-1.26-1.85-.53-.53-1.15-.95-1.86-1.26-.71-.31-1.47-.47-2.27-.47Z"></path>
      </g>
      <g class="cls-4">
        <path d="M341.98,351.98c-1.17,0-2.3-.2-3.37-.59-1.07-.39-2.01-.98-2.81-1.76l.73-1c.82.74,1.67,1.29,2.55,1.64s1.85.53,2.9.53c1.33,0,2.4-.28,3.21-.83s1.22-1.33,1.22-2.33c0-.47-.1-.87-.31-1.19s-.51-.59-.92-.82c-.41-.22-.92-.42-1.52-.6-.61-.18-1.31-.36-2.11-.56-.86-.2-1.61-.39-2.24-.59-.63-.2-1.16-.43-1.57-.7s-.72-.61-.92-1-.31-.89-.31-1.49c0-.76.15-1.43.44-1.99.29-.57.7-1.04,1.22-1.41.52-.37,1.11-.65,1.79-.83.67-.19,1.39-.28,2.15-.28,1.19,0,2.25.2,3.16.6.92.4,1.63.91,2.14,1.54l-.82.79c-.51-.59-1.17-1.03-1.98-1.32-.81-.29-1.68-.44-2.59-.44-.57,0-1.1.06-1.6.18s-.93.3-1.3.56c-.37.25-.66.58-.88.98-.22.4-.32.87-.32,1.42,0,.45.07.81.22,1.08s.38.51.7.7.74.37,1.25.51c.51.15,1.11.31,1.82.48.96.23,1.81.46,2.55.67.74.21,1.36.48,1.86.79s.88.68,1.14,1.11.4.98.4,1.64c0,1.37-.53,2.46-1.6,3.27s-2.49,1.21-4.26,1.21Z"></path>
      </g>
    </g>
  </g>
  <g class="cls-4">
    <g class="cls-4">
      <path d="M177.33,593.57l-.41-5.11c-1.58.48-3.15.64-4.69.49-1.54-.15-2.98-.71-4.3-1.67-.87-.63-1.6-1.38-2.19-2.25-.59-.87-1-1.79-1.22-2.78-.22-.99-.23-1.99-.03-3.01.2-1.02.65-2.02,1.36-3,.58-.8,1.24-1.45,1.97-1.95.74-.5,1.52-.88,2.36-1.14.83-.26,1.72-.44,2.65-.54.93-.1,1.88-.16,2.85-.17-.07-1.07-.1-2.01-.09-2.83,0-.82.05-1.54.14-2.16.08-.62.22-1.17.41-1.66.19-.49.43-.93.72-1.33.5-.69,1.1-1.24,1.81-1.66.71-.42,1.46-.69,2.25-.83.79-.14,1.6-.11,2.43.08.82.19,1.6.55,2.33,1.08.67.49,1.21,1.05,1.61,1.7.4.65.67,1.33.81,2.03.14.71.12,1.42-.04,2.15-.16.73-.48,1.41-.95,2.05-.48.67-1.07,1.2-1.75,1.6-.68.4-1.44.7-2.26.9-.82.2-1.7.33-2.63.38s-1.88.1-2.87.13l.99,11.98c1.06-.55,2.08-1.26,3.07-2.12.98-.86,1.88-1.85,2.68-2.96l1.3.94c-1.97,2.63-4.28,4.58-6.94,5.84l.59,7.23-1.99-1.44ZM169.1,586.04c1.13.81,2.35,1.27,3.67,1.36,1.32.09,2.66-.1,4.02-.56l-.98-12.74c-.89.03-1.74.09-2.55.18-.81.09-1.58.25-2.31.48-.74.23-1.41.55-2.03.97-.62.42-1.17.96-1.65,1.62-.58.8-.93,1.61-1.04,2.44-.12.83-.07,1.63.13,2.41.21.78.56,1.49,1.06,2.16.5.66,1.06,1.23,1.69,1.68ZM178.29,565.44c-.21.29-.38.6-.52.94-.14.34-.24.77-.31,1.3-.07.53-.1,1.17-.09,1.94,0,.76.04,1.7.12,2.8,1.99,0,3.68-.13,5.06-.37,1.38-.24,2.44-.87,3.17-1.89.67-.93.92-1.93.73-3-.19-1.07-.78-1.96-1.77-2.68-.53-.39-1.1-.64-1.7-.77-.6-.13-1.19-.15-1.76-.06-.58.09-1.12.29-1.63.6-.51.31-.94.71-1.29,1.19Z"></path>
    </g>
  </g>
  <g class="cls-4">
    <g class="cls-4">
      <path d="M230.19,590.69l-13.71,25.76-1.65-.88,6.56-12.34-14.47-7.7-6.56,12.34-1.65-.88,13.71-25.76,1.65.88-6.26,11.76,14.47,7.7,6.26-11.76,1.65.88Z"></path>
    </g>
  </g>
  <g class="cls-4">
    <g class="cls-4">
      <path d="M237.09,625.74c-1.67-.68-3.04-1.69-4.1-3.04-1.06-1.35-1.83-2.86-2.31-4.53-.48-1.67-.66-3.44-.53-5.31.13-1.87.54-3.67,1.24-5.4.73-1.8,1.72-3.41,2.97-4.83,1.25-1.42,2.63-2.55,4.15-3.42,1.52-.86,3.12-1.39,4.81-1.58,1.68-.19,3.33.04,4.93.69,1.67.68,3.04,1.7,4.11,3.06,1.07,1.36,1.83,2.89,2.28,4.59.46,1.69.62,3.47.5,5.33-.12,1.86-.52,3.62-1.2,5.3-.74,1.83-1.74,3.45-2.98,4.87-1.25,1.42-2.63,2.55-4.14,3.4-1.52.85-3.12,1.37-4.8,1.56-1.68.19-3.33-.04-4.93-.69ZM233.13,608.17c-.63,1.55-1,3.13-1.12,4.76-.12,1.62.02,3.16.42,4.61s1.05,2.74,1.96,3.88,2.06,1.99,3.46,2.56c1.45.59,2.89.77,4.33.56,1.44-.21,2.8-.72,4.09-1.51,1.28-.79,2.44-1.81,3.47-3.05,1.03-1.24,1.84-2.59,2.44-4.07.63-1.55,1-3.14,1.11-4.76.11-1.63-.04-3.17-.44-4.61s-1.04-2.74-1.93-3.86c-.88-1.13-2.02-1.97-3.39-2.53-1.45-.59-2.9-.78-4.35-.57s-2.83.71-4.12,1.5c-1.3.79-2.46,1.81-3.49,3.04-1.03,1.24-1.84,2.59-2.44,4.07Z"></path>
    </g>
  </g>
  <g class="cls-4">
    <g class="cls-4">
      <path d="M281.24,639.9l6.74-24.32-15.13,16.23-1.13-.31-4.61-21.71-6.74,24.32-1.8-.5,7.8-28.12,1.8.5,4.85,23.01,16.01-17.23,1.8.5-7.8,28.12-1.8-.5Z"></path>
    </g>
  </g>
  <g class="cls-4">
    <g class="cls-4">
      <path d="M312.58,643.71l-.3,1.87-17.08-2.78,4.69-28.8,16.75,2.73-.3,1.87-14.91-2.43-1.84,11.32,13.03,2.12-.29,1.79-13.03-2.12-1.95,11.97,15.24,2.48Z"></path>
    </g>
  </g>
  <g class="cls-4">
    <g class="cls-4">
      <path d="M355.82,640.39c-.02,1.07-.21,2.06-.59,2.97-.38.91-.89,1.71-1.53,2.38-.64.67-1.39,1.2-2.25,1.57s-1.76.55-2.71.54l-12.14-.17.42-29.18,12.11.17c.9.01,1.72.24,2.44.69.72.45,1.34,1.03,1.84,1.73.5.71.89,1.51,1.16,2.4.27.89.39,1.79.38,2.7-.02,1.48-.37,2.83-1.04,4.05-.68,1.22-1.6,2.11-2.78,2.67,1.48.51,2.64,1.46,3.49,2.83.85,1.37,1.26,2.92,1.23,4.64ZM353.96,640.08c.01-.77-.1-1.52-.33-2.25s-.57-1.38-1-1.95c-.43-.57-.94-1.02-1.54-1.36-.59-.34-1.23-.51-1.91-.52l-10.53-.15-.17,11.96,10.28.15c.73.01,1.41-.14,2.04-.46.63-.32,1.17-.76,1.63-1.31.46-.55.83-1.19,1.11-1.9.28-.71.42-1.45.43-2.21ZM338.84,620.42l-.17,11.67,9.51.14c.71,0,1.36-.14,1.95-.46.59-.32,1.1-.75,1.54-1.27.43-.53.78-1.15,1.03-1.86.25-.71.39-1.43.4-2.17.01-.79-.09-1.54-.32-2.25-.22-.7-.53-1.32-.92-1.86-.39-.54-.87-.97-1.43-1.29-.56-.32-1.18-.49-1.86-.5l-9.73-.14Z"></path>
    </g>
  </g>
  <g class="cls-4">
    <g class="cls-4">
      <path d="M376.78,646.68c-1.8.18-3.48-.08-5.04-.78-1.56-.7-2.95-1.68-4.15-2.93-1.2-1.26-2.18-2.74-2.94-4.46-.76-1.71-1.23-3.5-1.42-5.35-.19-1.94-.07-3.82.38-5.65.44-1.83,1.13-3.49,2.08-4.96s2.12-2.68,3.52-3.63,2.96-1.51,4.69-1.69c1.79-.18,3.48.09,5.06.8,1.58.71,2.96,1.71,4.16,2.99,1.19,1.29,2.17,2.78,2.93,4.48.76,1.7,1.23,3.45,1.4,5.25.2,1.96.07,3.86-.37,5.7-.44,1.83-1.14,3.48-2.08,4.94-.95,1.46-2.12,2.66-3.52,3.61-1.4.95-2.96,1.51-4.68,1.68ZM365.08,632.98c.17,1.66.57,3.24,1.22,4.73.65,1.49,1.49,2.79,2.52,3.88,1.03,1.1,2.21,1.94,3.54,2.52,1.33.58,2.75.8,4.25.65,1.55-.15,2.92-.66,4.1-1.52,1.18-.86,2.15-1.94,2.91-3.24.76-1.3,1.31-2.74,1.65-4.32.33-1.57.42-3.15.26-4.73-.17-1.66-.58-3.24-1.24-4.73-.66-1.49-1.51-2.78-2.54-3.88-1.03-1.1-2.2-1.94-3.5-2.52-1.31-.59-2.7-.81-4.18-.66-1.55.15-2.92.66-4.11,1.53-1.19.86-2.17,1.94-2.95,3.25s-1.33,2.74-1.67,4.32-.42,3.15-.26,4.73Z"></path>
    </g>
  </g>
  <g class="cls-4">
    <g class="cls-4">
      <path d="M400.28,613.32l1.57-.34,16.95,26.17-1.93.42-5.59-8.62-12.11,2.65-1.49,10.17-1.96.43,4.57-30.86ZM410.41,629.36l-8.8-13.73-2.38,16.17,11.19-2.44Z"></path>
    </g>
  </g>
  <g class="cls-4">
    <g class="cls-4">
      <path d="M428.07,636.35l-9.52-27.58,10.2-3.52c1.04-.36,2.08-.44,3.12-.25,1.05.19,2.03.58,2.94,1.18.92.6,1.73,1.35,2.44,2.25.71.9,1.24,1.87,1.6,2.9.35,1.01.55,2.04.6,3.08.05,1.04-.05,2.02-.3,2.95-.25.93-.64,1.76-1.19,2.5-.54.74-1.22,1.33-2.02,1.78l9.82,8.61-2.04.7-9.54-8.36-7.95,2.74,3.59,10.41-1.76.61ZM425.61,623.5l8.61-2.97c.78-.27,1.43-.71,1.94-1.32.51-.61.89-1.31,1.13-2.11.24-.79.34-1.64.3-2.54-.04-.9-.21-1.78-.5-2.63-.3-.88-.74-1.68-1.31-2.4-.57-.72-1.21-1.3-1.92-1.75-.71-.45-1.46-.75-2.25-.9-.79-.15-1.56-.09-2.32.17l-8.37,2.89,4.68,13.56Z"></path>
    </g>
  </g>
  <g class="cls-4">
    <g class="cls-4">
      <path d="M455.83,626.02l-12.9-26.18,7.74-3.82c1.84-.91,3.62-1.36,5.35-1.35,1.73,0,3.34.37,4.84,1.1,1.5.73,2.87,1.77,4.11,3.13,1.24,1.36,2.3,2.94,3.19,4.73.98,1.99,1.61,3.92,1.89,5.78.28,1.86.22,3.6-.18,5.22-.4,1.62-1.13,3.07-2.19,4.38-1.06,1.3-2.43,2.37-4.11,3.2l-7.74,3.82ZM466.49,604.45c-.81-1.65-1.77-3.06-2.87-4.25s-2.3-2.08-3.59-2.7c-1.29-.62-2.66-.92-4.1-.91-1.44,0-2.91.38-4.42,1.12l-6.07,2.99,11.23,22.78,6.07-2.99c1.53-.75,2.74-1.71,3.62-2.86s1.47-2.44,1.75-3.86c.28-1.42.28-2.92,0-4.51-.28-1.59-.82-3.19-1.62-4.82Z"></path>
    </g>
  </g>
  <g class="cls-4">
    <g class="cls-4">
      <path d="M483.55,611.25l-15.34-24.82,1.59-.98,15.34,24.82-1.59.98Z"></path>
    </g>
  </g>
  <g class="cls-4">
    <g class="cls-4">
      <path d="M481.63,582.55l15.4,19.99-1.48,1.14-17.81-23.12,1.13-.87,30.11,9.23-15.68-20.35,1.48-1.14,17.81,23.12-1.36,1.05-29.6-9.05Z"></path>
    </g>
  </g>
  <g class="cls-4">
    <g class="cls-4">
      <path d="M532.26,564.92c.54,4.02-.35,7.21-2.66,9.6-1.22,1.26-2.66,2.14-4.31,2.62-1.65.49-3.36.63-5.11.43-1.75-.2-3.48-.7-5.18-1.5-1.7-.8-3.22-1.84-4.53-3.12-1.38-1.33-2.5-2.83-3.36-4.5-.86-1.67-1.42-3.36-1.67-5.07-.25-1.71-.15-3.38.29-4.99.44-1.61,1.26-3.04,2.46-4.29.9-.93,1.82-1.65,2.77-2.18.95-.53,1.91-.88,2.88-1.08.97-.2,1.95-.24,2.92-.12.98.11,1.94.35,2.9.7l-.33,1.82c-1.99-.7-3.8-.83-5.43-.39-1.63.44-3.08,1.32-4.35,2.63-1.07,1.1-1.77,2.36-2.1,3.77-.33,1.41-.37,2.85-.12,4.32s.77,2.9,1.55,4.3c.78,1.4,1.75,2.66,2.91,3.79,1.24,1.2,2.6,2.15,4.09,2.84,1.48.69,2.98,1.11,4.48,1.25,1.5.15,2.94,0,4.33-.42,1.38-.42,2.58-1.16,3.6-2.21,1.1-1.14,1.86-2.51,2.26-4.1.4-1.6.42-3.49.06-5.67l-4.05-3.92-4.1,4.23-1.21-1.17,5.22-5.39,10.19,9.86-1.12,1.16-3.28-3.17Z"></path>
    </g>
  </g>
</svg><style>@media (prefers-color-scheme: light) { :root { filter: none; } }
@media (prefers-color-scheme: dark) { :root { filter: none; } }
</style></svg>